<svg version="1.0" xmlns="http://www.w3.org/2000/svg" viewBox="175 133 248 62" preserveAspectRatio="xMidYMid meet">
<g transform="translate(0.000000,337.000000) scale(0.100000,-0.100000)" fill="#F5F2EC" stroke="none">
<path d="M2610 1958 l0 -68 160 0 c123 0 169 -4 198 -16 155 -64 161 -263 11&#xA;-338 -46 -22 -66 -26 -146 -26 l-93 0 0 128 0 128 -65 1 -65 1 0 -195 0 -195&#xA;178 4 c167 3 180 5 233 29 127 60 193 159 194 289 0 62 -5 85 -28 132 -33 67&#xA;-90 121 -166 157 -52 24 -68 26 -234 31 l-177 5 0 -67z m250 31 c107 -3 170&#xA;-16 153 -33 -4 -4 1 -4 11 0 27 10 140 -109 130 -138 -4 -13 -2 -18 4 -14 33&#xA;20 38 -188 6 -215 -8 -6 -14 -18 -14 -27 0 -18 -85 -103 -94 -94 -4 3 -13 -4&#xA;-22 -16 -8 -12 -20 -20 -25 -16 -5 3 -17 0 -26 -8 -12 -9 -62 -14 -179 -17&#xA;l-163 -3 -3 157 c-2 86 0 161 3 167 3 5 19 8 35 6 l29 -3 3 -112 c2 -69 7&#xA;-113 13 -113 6 0 8 -4 5 -9 -3 -5 0 -11 8 -14 22 -9 226 -6 221 3 -3 4 5 11&#xA;18 15 12 4 24 8 27 9 24 8 49 29 45 36 -4 6 1 7 11 3 12 -4 15 -3 10 6 -5 8 0&#xA;18 14 28 12 8 19 21 16 28 -3 8 0 15 5 17 19 6 19 105 -1 142 -10 20 -13 33&#xA;-6 29 6 -4 -7 13 -29 38 -22 24 -42 40 -44 36 -1 -4 -9 0 -16 9 -16 23 -34 26&#xA;-212 31 l-153 4 0 34 c0 37 9 41 70 38 19 -1 87 -3 150 -4z"></path>
<path d="M1760 1955 l0 -65 270 0 270 0 0 65 0 65 -270 0 -270 0 0 -65z m493&#xA;37 c12 -1 17 -11 17 -32 0 -16 -5 -30 -11 -30 -5 0 -8 -3 -6 -7 3 -5 -99 -6&#xA;-226 -3 l-232 5 -3 32 -3 32 93 3 c104 3 343 3 371 0z"></path>
<path d="M2390 1955 l0 -65 65 0 65 0 0 65 0 65 -65 0 -65 0 0 -65z m78 39&#xA;c17 -5 22 -14 22 -40 0 -32 -2 -34 -35 -34 -34 0 -35 1 -35 40 0 41 5 45 48&#xA;34z"></path>
<path d="M1760 1573 l0 -193 68 0 67 0 -3 130 -4 130 206 0 206 0 0 65 0 65&#xA;-270 -3 -270 -2 0 -192z m489 158 c7 -5 15 -20 16 -35 l3 -26 -189 0 c-159 0&#xA;-191 -2 -195 -15 -4 -8 -9 -13 -14 -10 -4 2 -7 -24 -8 -58 -2 -173 -2 -177&#xA;-32 -177 -16 0 -30 6 -33 13 -7 19 -9 296 -2 307 8 12 435 13 454 1z"></path>
<path d="M2390 1573 l0 -193 65 0 65 0 0 194 0 194 -65 -1 -65 -2 0 -192z m97&#xA;155 c12 -20 11 -302 -1 -310 -6 -4 -23 -8 -38 -8 l-28 0 0 165 0 165 29 0 c17&#xA;0 33 -6 38 -12z"></path>
<path d="M3470 1656 c0 -2 8 -10 18 -17 15 -13 16 -12 3 4 -13 16 -21 21 -21&#xA;13z"></path>
<path d="M3890 1656 c0 -2 8 -10 18 -17 15 -13 16 -12 3 4 -13 16 -21 21 -21&#xA;13z"></path>
<path d="M3710 1632 c-45 -22 -83 -93 -74 -137 17 -79 62 -117 141 -117 49 0&#xA;84 19 110 58 14 22 14 27 2 35 -23 15 -55 10 -74 -11 -50 -56 -122 10 -91 84&#xA;18 44 51 52 83 20 27 -27 93 -35 93 -10 0 23 -42 68 -76 82 -44 18 -72 18&#xA;-114 -4z m30 -37 c-11 -13 -15 -13 -21 -3 -7 10 -9 9 -9 -4 0 -19 -29 -52 -38&#xA;-43 -3 3 3 12 14 21 10 8 13 13 7 9 -7 -3 -13 -2 -13 2 0 13 40 34 50 28 6 -4&#xA;10 -1 10 6 0 7 3 9 6 6 4 -4 1 -14 -6 -22z m106 -5 c5 1 10 -3 12 -9 2 -6 0&#xA;-11 -5 -11 -12 0 -33 22 -33 35 0 5 4 4 9 -3 4 -8 12 -13 17 -12z m-171 -70&#xA;c-3 -5 -1 -10 4 -10 6 0 11 -7 11 -16 0 -9 8 -28 18 -42 36 -52 35 -57 -4 -19&#xA;-30 28 -39 44 -38 65 3 33 3 32 10 32 3 0 2 -4 -1 -10z m164 -93 c-13 -5 -33&#xA;-14 -44 -20 -18 -9 -19 -8 -6 6 7 10 22 17 32 17 11 0 19 5 19 11 0 5 5 7 12&#xA;3 8 -5 4 -11 -13 -17z"></path>
<path d="M3331 1621 c-23 -23 -27 -61 -9 -79 9 -9 7 -13 -6 -18 -9 -3 -24 -20&#xA;-32 -36 -13 -24 -13 -35 -4 -58 20 -49 105 -68 155 -36 20 13 25 13 35 1 7 -9&#xA;30 -15 53 -15 l41 0 -33 34 -34 35 22 27 c21 27 21 29 4 35 -30 12 -53 10 -53&#xA;-6 0 -24 -13 -18 -54 24 -25 25 -36 45 -33 55 8 21 37 9 37 -16 0 -15 5 -18&#xA;23 -13 38 12 42 23 20 52 -27 38 -101 45 -132 14z m35 -26 c-18 -19 -18 -18&#xA;-10 -39 3 -9 11 -13 17 -9 6 3 7 1 3 -5 -4 -7 -1 -12 6 -13 10 0 10 -2 0 -6&#xA;-6 -2 -10 -10 -6 -16 3 -7 -2 -3 -11 8 -26 32 -29 64 -10 85 10 11 20 18 23&#xA;16 2 -3 -3 -12 -12 -21z m-36 -115 c0 -5 -2 -10 -4 -10 -3 0 -8 5 -11 10 -3 6&#xA;-1 10 4 10 6 0 11 -4 11 -10z m65 -14 l30 -24 -28 -7 c-34 -9 -61 12 -51 38 8&#xA;22 13 21 49 -7z m74 -15 c-8 -2 -8 -5 1 -11 7 -4 1 -7 -15 -7 -16 0 -22 3 -15&#xA;7 10 6 9 9 0 12 -8 2 -14 12 -16 21 -2 16 0 16 27 0 16 -10 25 -19 18 -22z&#xA;m-146 -24 c-4 -7 1 -8 13 -3 14 5 16 4 7 -5 -12 -12 -37 -3 -28 11 3 5 1 11&#xA;-5 15 -5 3 -10 12 -10 18 0 7 7 3 15 -7 8 -10 12 -24 8 -29z"></path>
<path d="M3430 1466 c0 -2 7 -7 16 -10 8 -3 12 -2 9 4 -6 10 -25 14 -25 6z"></path>
<path d="M3974 1570 c-32 -13 -54 -50 -54 -91 0 -94 114 -135 187 -67 18 17&#xA;23 32 23 69 0 40 -4 51 -31 73 -32 27 -82 34 -125 16z m26 -26 c0 -8 -19 -13&#xA;-24 -6 -3 5 1 9 9 9 8 0 15 -2 15 -3z m100 -30 c0 -2 -9 0 -20 6 -11 6 -20 13&#xA;-20 16 0 2 9 0 20 -6 11 -6 20 -13 20 -16z m-128 -3 c-14 -9 -6 -60 15 -84 13&#xA;-15 13 -18 2 -9 -9 6 -19 8 -23 4 -4 -4 -7 -2 -6 3 5 21 0 36 -9 30 -6 -3 -8&#xA;4 -6 16 8 42 17 59 27 53 6 -4 7 -9 0 -13z m86 -27 c5 -55 -51 -71 -64 -18 -8&#xA;30 12 56 40 52 15 -2 22 -11 24 -34z m49 -5 c1 -10 -3 -22 -9 -25 -7 -4 -8 -2&#xA;-4 5 4 6 3 18 -3 25 -8 9 -7 13 2 13 7 0 14 -8 14 -18z"></path>
<path d="M3773 1545 c0 -8 4 -12 9 -9 5 3 6 10 3 15 -9 13 -12 11 -12 -6z"></path>
<path d="M3565 1470 c3 -6 1 -10 -6 -10 -7 0 -10 -3 -6 -6 3 -3 13 -2 22 4 16&#xA;8 16 9 1 15 -10 4 -15 3 -11 -3z"></path>
<path d="M4172 1438 c-30 -30 3 -77 40 -57 22 12 24 55 2 63 -22 8 -28 8 -42&#xA;-6z"></path>
</g>
</svg>