<svg xmlns="http://www.w3.org/2000/svg" viewBox="0 0 64 64">
<rect width="64" height="64" rx="14" fill="#750006"></rect>
<g fill="#F5F2EC" transform="translate(-52.29,-116.80) scale(0.4413)">
<path d="M166.73,330.52c6.99-3.52,13.9-2.85,20.73-2.87c13.43-0.04,26.85-0.01,40.64-0.01 c1.74,5.96,0.3,11.88,0.97,18.54c-15.83,0-31.03-0.01-46.24,0c-9.76,0.01-11.21,1.56-11.27,12.09c-0.04,7.94-0.01,15.89-0.01,24.23 c-6.27,0-11.96,0-18.06,0c0-10.88-0.76-21.88,0.25-32.69C154.49,341.74,158.66,334.74,166.73,330.52z"></path>
<path d="M153.42,301.27c0-3.46,0-6.18,0-9.41c25.27,0,50.05,0,75.16,0c0,5.25,0,10.36,0,16.47 c-10.95,0-21.89,0-32.82,0c-12.09,0-24.19-0.24-36.27,0.12C154.63,308.6,152.59,307.13,153.42,301.27z"></path></g>
</svg>
