<?xml version="1.0"?>

<svg xmlns="http://www.w3.org/2000/svg" version="1.1" width="1220" height="360" viewBox="816 619 1220 360" style="shape-rendering:geometricPrecision; text-rendering:geometricPrecision; image-rendering:optimizeQuality; fill-rule:evenodd; clip-rule:evenodd" xmlns:xlink="http://www.w3.org/1999/xlink">

<g><path style="opacity:1" fill="#010000" d="M 836.5,640.5 C 920.833,640.5 1005.17,640.5 1089.5,640.5C 1089.5,660.5 1089.5,680.5 1089.5,700.5C 1005.17,700.5 920.833,700.5 836.5,700.5C 836.5,680.5 836.5,660.5 836.5,640.5 Z"></path></g>
<g><path style="opacity:1" fill="#050404" d="M 1195.5,639.5 C 1195.5,660.167 1195.5,680.833 1195.5,701.5C 1174.83,701.5 1154.17,701.5 1133.5,701.5C 1132.5,681.007 1132.17,660.34 1132.5,639.5C 1153.5,639.5 1174.5,639.5 1195.5,639.5 Z"></path></g>
<g><path style="opacity:1" fill="#020202" d="M 1373.5,639.5 C 1377.88,639.372 1382.21,639.705 1386.5,640.5C 1389.97,641.525 1393.64,642.192 1397.5,642.5C 1397.92,643.222 1398.58,643.722 1399.5,644C 1396.29,644.296 1393.13,644.796 1390,645.5C 1387.58,643.869 1385.58,644.203 1384,646.5C 1380.92,645.712 1377.76,645.212 1374.5,645C 1332.17,644.333 1289.83,644.333 1247.5,645C 1252.5,645.428 1252.66,646.261 1248,647.5C 1247.32,648.784 1247.48,649.951 1248.5,651C 1253.53,651.171 1258.53,651.671 1263.5,652.5C 1274.53,653.811 1285.53,653.811 1296.5,652.5C 1298.12,653.154 1299.78,653.654 1301.5,654C 1298.06,654.649 1297.9,655.149 1301,655.5C 1310.92,654.229 1320.92,653.562 1331,653.5C 1340.17,653.667 1349.33,653.833 1358.5,654C 1358,654.5 1357.5,655 1357,655.5C 1342.67,655.167 1328.33,654.833 1314,654.5C 1313.59,654.957 1313.09,655.291 1312.5,655.5C 1311.17,660.833 1311.17,666.167 1312.5,671.5C 1317.17,671.833 1321.83,672.167 1326.5,672.5C 1327.66,677.131 1327.83,681.798 1327,686.5C 1316.58,687.487 1306.08,687.82 1295.5,687.5C 1295.33,688.822 1295.66,689.989 1296.5,691C 1311.83,691.667 1327.17,691.667 1342.5,691C 1343.21,689.745 1344.04,688.579 1345,687.5C 1349,687.5 1353,687.5 1357,687.5C 1358.5,688.333 1359.67,689.5 1360.5,691C 1376.16,691.5 1391.83,691.667 1407.5,691.5C 1407.5,692.833 1407.5,694.167 1407.5,695.5C 1412.83,695.5 1418.17,695.5 1423.5,695.5C 1423.42,692.729 1423.92,690.063 1425,687.5C 1429,687.5 1433,687.5 1437,687.5C 1437.41,687.957 1437.91,688.291 1438.5,688.5C 1439.83,693.167 1439.83,697.833 1438.5,702.5C 1434.26,702.694 1430.1,702.694 1426,702.5C 1423.06,705.658 1423.22,708.825 1426.5,712C 1424.27,712.121 1422.44,712.954 1421,714.5C 1420.33,713.748 1419.5,713.414 1418.5,713.5C 1415.38,712.439 1412.38,711.105 1409.5,709.5C 1407.9,707.926 1405.9,707.259 1403.5,707.5C 1393.06,704.345 1382.39,702.345 1371.5,701.5C 1327.34,700.501 1283,700.168 1238.5,700.5C 1238.5,680.167 1238.5,659.833 1238.5,639.5C 1283.5,639.5 1328.5,639.5 1373.5,639.5 Z"></path></g>
<g><path style="opacity:1" fill="#d2cecd" d="M 1409.5,645.5 C 1405.58,644.188 1401.58,643.188 1397.5,642.5C 1393.64,642.192 1389.97,641.525 1386.5,640.5C 1390.22,640.32 1393.88,640.654 1397.5,641.5C 1398.65,641.182 1399.48,640.516 1400,639.5C 1402.88,640.689 1405.71,642.022 1408.5,643.5C 1409.3,643.957 1409.63,644.624 1409.5,645.5 Z"></path></g>
<g><path style="opacity:1" fill="#060101" d="M 1397.5,642.5 C 1401.58,643.188 1405.58,644.188 1409.5,645.5C 1413.34,647.003 1417.34,648.336 1421.5,649.5C 1442.86,657.678 1462.2,669.178 1479.5,684C 1483.37,687.702 1487.04,691.536 1490.5,695.5C 1491.08,697.749 1492.41,699.415 1494.5,700.5C 1511.63,720.672 1522.13,744.006 1526,770.5C 1527.12,788.296 1526.29,805.963 1523.5,823.5C 1522.08,825.515 1521.41,827.848 1521.5,830.5C 1519.51,840.124 1516.17,849.124 1511.5,857.5C 1510.33,858.514 1509.66,859.847 1509.5,861.5C 1504.58,870.353 1498.91,878.686 1492.5,886.5C 1484.66,895.504 1475.99,903.671 1466.5,911C 1456.04,917.219 1445.71,923.386 1435.5,929.5C 1424.97,933.208 1414.3,936.541 1403.5,939.5C 1400.85,939.41 1398.51,940.076 1396.5,941.5C 1393.52,941.963 1390.52,942.296 1387.5,942.5C 1388.6,941.442 1389.93,940.608 1391.5,940C 1386.77,939.946 1382.6,938.446 1379,935.5C 1377.95,936.517 1376.78,936.684 1375.5,936C 1375.92,933.177 1376.25,930.344 1376.5,927.5C 1378.74,926.36 1380.91,926.36 1383,927.5C 1383.5,924.854 1383.66,922.187 1383.5,919.5C 1386.17,919.5 1388.83,919.5 1391.5,919.5C 1392,916.319 1391.17,913.653 1389,911.5C 1375.59,911.659 1360.42,911.659 1343.5,911.5C 1343.42,914.206 1343.09,916.873 1342.5,919.5C 1332.49,919.666 1322.49,919.5 1312.5,919C 1311.56,916.619 1311.23,914.119 1311.5,911.5C 1306.17,911.5 1300.83,911.5 1295.5,911.5C 1295.17,906.125 1295.51,900.792 1296.5,895.5C 1298.74,894.36 1300.91,894.36 1303,895.5C 1305.13,893.862 1307.63,893.029 1310.5,893C 1311.17,891.333 1311.83,889.667 1312.5,888C 1309.83,887.333 1309.83,886.667 1312.5,886C 1324.5,885.333 1336.5,885.333 1348.5,886C 1347.5,886.333 1346.5,886.667 1345.5,887C 1350.61,887.109 1355.61,887.776 1360.5,889C 1365.49,889.499 1370.49,889.666 1375.5,889.5C 1375.38,886.795 1376.38,886.128 1378.5,887.5C 1380.12,886.846 1381.78,886.346 1383.5,886C 1380.96,885.86 1378.62,885.194 1376.5,884C 1350.66,883.832 1325,883.332 1299.5,882.5C 1325.5,882.667 1351.5,882.5 1377.5,882C 1399.51,878.586 1419.17,869.919 1436.5,856C 1453.17,840.835 1462.5,822.001 1464.5,799.5C 1467.03,779.602 1463.2,760.936 1453,743.5C 1450.29,739.388 1447.12,735.722 1443.5,732.5C 1436,724.99 1427.67,718.656 1418.5,713.5C 1419.5,713.414 1420.33,713.748 1421,714.5C 1422.44,712.954 1424.27,712.121 1426.5,712C 1423.22,708.825 1423.06,705.658 1426,702.5C 1430.1,702.694 1434.26,702.694 1438.5,702.5C 1439.83,697.833 1439.83,693.167 1438.5,688.5C 1437.91,688.291 1437.41,687.957 1437,687.5C 1433,687.5 1429,687.5 1425,687.5C 1423.92,690.063 1423.42,692.729 1423.5,695.5C 1418.17,695.5 1412.83,695.5 1407.5,695.5C 1407.5,694.167 1407.5,692.833 1407.5,691.5C 1391.83,691.667 1376.16,691.5 1360.5,691C 1359.67,689.5 1358.5,688.333 1357,687.5C 1353,687.5 1349,687.5 1345,687.5C 1344.04,688.579 1343.21,689.745 1342.5,691C 1327.17,691.667 1311.83,691.667 1296.5,691C 1295.66,689.989 1295.33,688.822 1295.5,687.5C 1306.08,687.82 1316.58,687.487 1327,686.5C 1327.83,681.798 1327.66,677.131 1326.5,672.5C 1321.83,672.167 1317.17,671.833 1312.5,671.5C 1311.17,666.167 1311.17,660.833 1312.5,655.5C 1313.09,655.291 1313.59,654.957 1314,654.5C 1328.33,654.833 1342.67,655.167 1357,655.5C 1357.5,655 1358,654.5 1358.5,654C 1349.33,653.833 1340.17,653.667 1331,653.5C 1320.92,653.562 1310.92,654.229 1301,655.5C 1297.9,655.149 1298.06,654.649 1301.5,654C 1299.78,653.654 1298.12,653.154 1296.5,652.5C 1285.53,653.811 1274.53,653.811 1263.5,652.5C 1258.53,651.671 1253.53,651.171 1248.5,651C 1247.48,649.951 1247.32,648.784 1248,647.5C 1252.66,646.261 1252.5,645.428 1247.5,645C 1289.83,644.333 1332.17,644.333 1374.5,645C 1377.76,645.212 1380.92,645.712 1384,646.5C 1385.58,644.203 1387.58,643.869 1390,645.5C 1393.13,644.796 1396.29,644.296 1399.5,644C 1398.58,643.722 1397.92,643.222 1397.5,642.5 Z"></path></g>
<g><path style="opacity:1" fill="#b7b3b3" d="M 1409.5,645.5 C 1414.24,645.008 1418.24,646.342 1421.5,649.5C 1417.34,648.336 1413.34,647.003 1409.5,645.5 Z"></path></g>
<g><path style="opacity:1" fill="#838280" d="M 1373.5,639.5 C 1328.5,639.5 1283.5,639.5 1238.5,639.5C 1238.5,659.833 1238.5,680.167 1238.5,700.5C 1283,700.168 1327.34,700.501 1371.5,701.5C 1326.83,701.5 1282.17,701.5 1237.5,701.5C 1237.5,680.5 1237.5,659.5 1237.5,638.5C 1283,638.168 1328.34,638.501 1373.5,639.5 Z"></path></g>
<g><path style="opacity:1" fill="#42413f" d="M 836.5,640.5 C 836.5,640.167 836.5,639.833 836.5,639.5C 921.167,639.5 1005.83,639.5 1090.5,639.5C 1090.5,660.167 1090.5,680.833 1090.5,701.5C 1005.67,701.833 920.998,701.499 836.5,700.5C 920.833,700.5 1005.17,700.5 1089.5,700.5C 1089.5,680.5 1089.5,660.5 1089.5,640.5C 1005.17,640.5 920.833,640.5 836.5,640.5 Z"></path></g>
<g><path style="opacity:1" fill="#534f4e" d="M 1490.5,695.5 C 1492.59,696.585 1493.92,698.251 1494.5,700.5C 1492.41,699.415 1491.08,697.749 1490.5,695.5 Z"></path></g>
<g><path style="opacity:1" fill="#dcdbda" d="M 836.5,639.5 C 836.5,639.833 836.5,640.167 836.5,640.5C 836.5,660.5 836.5,680.5 836.5,700.5C 920.998,701.499 1005.67,701.833 1090.5,701.5C 1005.67,702.499 920.668,702.833 835.5,702.5C 835.169,681.327 835.503,660.327 836.5,639.5 Z"></path></g>
<g><path style="opacity:1" fill="#868685" d="M 1195.5,639.5 C 1196.5,660.327 1196.83,681.327 1196.5,702.5C 1175.33,702.831 1154.33,702.497 1133.5,701.5C 1154.17,701.5 1174.83,701.5 1195.5,701.5C 1195.5,680.833 1195.5,660.167 1195.5,639.5 Z"></path></g>
<g><path style="opacity:1" fill="#525252" d="M 1403.5,707.5 C 1405.9,707.259 1407.9,707.926 1409.5,709.5C 1407.1,709.741 1405.1,709.074 1403.5,707.5 Z"></path></g>
<g><path style="opacity:1" fill="#e4e3e2" d="M 1443.5,732.5 C 1447.12,735.722 1450.29,739.388 1453,743.5C 1463.2,760.936 1467.03,779.602 1464.5,799.5C 1464.46,789.424 1463.62,779.424 1462,769.5C 1461,767.5 1460,765.5 1459,763.5C 1459.29,766.757 1458.79,770.09 1457.5,773.5C 1456.45,772.078 1456.45,770.578 1457.5,769C 1454.62,765.416 1452.12,761.582 1450,757.5C 1446.64,756 1444.81,753.333 1444.5,749.5C 1440.5,752.343 1439.83,751.843 1442.5,748C 1441,744.693 1440,741.193 1439.5,737.5C 1439.83,737.167 1440.17,736.833 1440.5,736.5C 1441.33,737.5 1442.17,738.5 1443,739.5C 1444.06,737.05 1444.23,734.717 1443.5,732.5 Z"></path></g>
<g><path style="opacity:1" fill="#bdbbbb" d="M 836.5,761.5 C 921.332,760.501 1006.33,760.167 1091.5,760.5C 1091.74,761.791 1091.4,762.791 1090.5,763.5C 1006.17,761.503 921.507,760.836 836.5,761.5 Z"></path></g>
<g><path style="opacity:1" fill="#3a3838" d="M 1133.5,762.5 C 1133.5,762.167 1133.5,761.833 1133.5,761.5C 1154.5,761.5 1175.5,761.5 1196.5,761.5C 1196.5,821.5 1196.5,881.5 1196.5,941.5C 1195.5,882.002 1195.17,822.336 1195.5,762.5C 1174.83,762.5 1154.17,762.5 1133.5,762.5 Z"></path></g>
<g><path style="opacity:1" fill="#302c2c" d="M 1238.5,762.5 C 1258.66,761.503 1278.99,761.17 1299.5,761.5C 1299.5,801.833 1299.5,842.167 1299.5,882.5C 1298.5,842.67 1298.17,802.67 1298.5,762.5C 1278.5,762.5 1258.5,762.5 1238.5,762.5 Z"></path></g>
<g><path style="opacity:1" fill="#020101" d="M 836.5,761.5 C 921.507,760.836 1006.17,761.503 1090.5,763.5C 1090.5,782.167 1090.5,800.833 1090.5,819.5C 1026.5,819.5 962.5,819.5 898.5,819.5C 898.5,860.833 898.5,902.167 898.5,943.5C 877.833,943.5 857.167,943.5 836.5,943.5C 836.5,882.833 836.5,822.167 836.5,761.5 Z"></path></g>
<g><path style="opacity:1" fill="#000000" d="M 1133.5,762.5 C 1154.17,762.5 1174.83,762.5 1195.5,762.5C 1195.17,822.336 1195.5,882.002 1196.5,941.5C 1196.5,942.167 1196.5,942.833 1196.5,943.5C 1175.5,943.5 1154.5,943.5 1133.5,943.5C 1133.5,883.167 1133.5,822.833 1133.5,762.5 Z"></path></g>
<g><path style="opacity:1" fill="#010000" d="M 1238.5,762.5 C 1258.5,762.5 1278.5,762.5 1298.5,762.5C 1298.17,802.67 1298.5,842.67 1299.5,882.5C 1325,883.332 1350.66,883.832 1376.5,884C 1378.62,885.194 1380.96,885.86 1383.5,886C 1381.78,886.346 1380.12,886.846 1378.5,887.5C 1376.38,886.128 1375.38,886.795 1375.5,889.5C 1370.49,889.666 1365.49,889.499 1360.5,889C 1355.61,887.776 1350.61,887.109 1345.5,887C 1346.5,886.667 1347.5,886.333 1348.5,886C 1336.5,885.333 1324.5,885.333 1312.5,886C 1309.83,886.667 1309.83,887.333 1312.5,888C 1311.83,889.667 1311.17,891.333 1310.5,893C 1307.63,893.029 1305.13,893.862 1303,895.5C 1300.91,894.36 1298.74,894.36 1296.5,895.5C 1295.51,900.792 1295.17,906.125 1295.5,911.5C 1300.83,911.5 1306.17,911.5 1311.5,911.5C 1311.23,914.119 1311.56,916.619 1312.5,919C 1322.49,919.5 1332.49,919.666 1342.5,919.5C 1343.09,916.873 1343.42,914.206 1343.5,911.5C 1360.42,911.659 1375.59,911.659 1389,911.5C 1391.17,913.653 1392,916.319 1391.5,919.5C 1388.83,919.5 1386.17,919.5 1383.5,919.5C 1383.66,922.187 1383.5,924.854 1383,927.5C 1380.91,926.36 1378.74,926.36 1376.5,927.5C 1376.25,930.344 1375.92,933.177 1375.5,936C 1376.78,936.684 1377.95,936.517 1379,935.5C 1382.6,938.446 1386.77,939.946 1391.5,940C 1389.93,940.608 1388.6,941.442 1387.5,942.5C 1383.53,943.162 1379.53,943.495 1375.5,943.5C 1329.83,943.5 1284.17,943.5 1238.5,943.5C 1238.5,936.833 1238.5,930.167 1238.5,923.5C 1238.5,869.833 1238.5,816.167 1238.5,762.5 Z"></path></g>
<g><path style="opacity:1" fill="#575754" d="M 1778.5,818.5 C 1786.99,817.343 1795.66,817.176 1804.5,818C 1805.42,818.278 1806.08,818.778 1806.5,819.5C 1797.2,818.613 1787.87,818.279 1778.5,818.5 Z"></path></g>
<g><path style="opacity:1" fill="#8b8b88" d="M 1617.5,819.5 C 1611.11,819.249 1604.77,819.582 1598.5,820.5C 1598.61,819.883 1598.94,819.383 1599.5,819C 1605.68,818.181 1611.68,818.347 1617.5,819.5 Z"></path></g>
<g><path style="opacity:1" fill="#9c9c99" d="M 1090.5,819.5 C 1027,820.499 963.336,820.832 899.5,820.5C 899.832,861.67 899.499,902.67 898.5,943.5C 898.5,902.167 898.5,860.833 898.5,819.5C 962.5,819.5 1026.5,819.5 1090.5,819.5 Z"></path></g>
<g><path style="opacity:1" fill="#747373" d="M 1523.5,823.5 C 1523.59,826.152 1522.92,828.485 1521.5,830.5C 1521.41,827.848 1522.08,825.515 1523.5,823.5 Z"></path></g>
<g><path style="opacity:1" fill="#7a7475" d="M 1639.5,829.5 C 1641.5,829.5 1642.5,830.5 1642.5,832.5C 1641.17,831.833 1640.17,830.833 1639.5,829.5 Z"></path></g>
<g><path style="opacity:1" fill="#4c4a46" d="M 1578.5,831.5 C 1578.16,834.198 1576.82,836.198 1574.5,837.5C 1575.34,835.147 1576.67,833.147 1578.5,831.5 Z"></path></g>
<g><path style="opacity:1" fill="#070303" d="M 1778.5,818.5 C 1787.87,818.279 1797.2,818.613 1806.5,819.5C 1824.11,823.768 1837.44,833.768 1846.5,849.5C 1847.17,851.167 1847.83,852.833 1848.5,854.5C 1849.58,858.085 1850.25,861.751 1850.5,865.5C 1848.5,865.5 1846.5,865.5 1844.5,865.5C 1839.92,865.438 1835.59,866.105 1831.5,867.5C 1826.13,867.828 1820.79,867.495 1815.5,866.5C 1812.88,858.216 1807.55,852.549 1799.5,849.5C 1799.08,848.778 1798.42,848.278 1797.5,848C 1792.5,847.333 1787.5,847.333 1782.5,848C 1780.57,848.902 1778.9,850.069 1777.5,851.5C 1771.42,853.752 1767.59,858.085 1766,864.5C 1764,870.481 1763.16,876.647 1763.5,883C 1762.56,893.551 1765.89,902.551 1773.5,910C 1775.08,911.094 1776.74,911.928 1778.5,912.5C 1782.25,915.878 1786.75,917.211 1792,916.5C 1796.97,917.252 1801.14,915.919 1804.5,912.5C 1808.8,909.871 1812.46,906.537 1815.5,902.5C 1816.17,900.833 1816.83,899.167 1817.5,897.5C 1819,897.167 1820.5,896.833 1822,896.5C 1826.83,897.234 1831.67,897.9 1836.5,898.5C 1839.17,900.118 1842.17,900.785 1845.5,900.5C 1846.5,900.5 1847.5,900.5 1848.5,900.5C 1851.21,903.228 1850.87,905.728 1847.5,908C 1848.06,908.383 1848.39,908.883 1848.5,909.5C 1844.5,917.488 1839.5,924.822 1833.5,931.5C 1828.06,934.874 1822.73,938.208 1817.5,941.5C 1812.28,942.387 1807.28,943.721 1802.5,945.5C 1790.73,946.642 1779.07,945.976 1767.5,943.5C 1748.46,936.129 1735.46,922.796 1728.5,903.5C 1727.25,900.868 1726.25,898.201 1725.5,895.5C 1725.5,894.833 1725.5,894.167 1725.5,893.5C 1724.91,882.632 1725.91,871.966 1728.5,861.5C 1732.22,848.43 1739.55,837.763 1750.5,829.5C 1755.07,827.398 1759.4,824.898 1763.5,822C 1768.35,820.192 1773.35,819.025 1778.5,818.5 Z"></path></g>
<g><path style="opacity:1" fill="#f1f0eb" d="M 1950.5,864.5 C 1938.97,854.18 1925.31,848.846 1909.5,848.5C 1903.13,849.342 1896.8,850.342 1890.5,851.5C 1890.61,850.883 1890.94,850.383 1891.5,850C 1889.78,849.261 1888.11,848.427 1886.5,847.5C 1887.35,845.591 1887.68,843.591 1887.5,841.5C 1894.24,841.796 1900.9,841.796 1907.5,841.5C 1910.01,842.746 1912.67,843.746 1915.5,844.5C 1918.33,843.746 1920.99,842.746 1923.5,841.5C 1926.51,841.179 1927.85,842.512 1927.5,845.5C 1928.98,845.762 1930.31,845.429 1931.5,844.5C 1932.14,842.697 1933.3,841.364 1935,840.5C 1934.62,842.075 1934.79,843.575 1935.5,845C 1933.11,845.284 1932.45,846.284 1933.5,848C 1931.17,847.667 1928.83,847.333 1926.5,847C 1928.11,848.395 1929.61,849.895 1931,851.5C 1931.87,851.265 1932.71,850.931 1933.5,850.5C 1936.57,851.87 1939.74,852.87 1943,853.5C 1943.25,852.376 1943.75,851.376 1944.5,850.5C 1948.19,852.195 1950.86,854.861 1952.5,858.5C 1953.89,857.185 1954.89,857.519 1955.5,859.5C 1953.43,860.767 1951.77,862.433 1950.5,864.5 Z"></path></g>
<g><path style="opacity:1" fill="#666660" d="M 1647.5,840.5 C 1648.4,841.29 1649.07,842.29 1649.5,843.5C 1649.8,846.059 1649.47,848.393 1648.5,850.5C 1648.17,847.167 1647.83,843.833 1647.5,840.5 Z"></path></g>
<g><path style="opacity:1" fill="#c0baaf" d="M 1799.5,849.5 C 1795.65,849.403 1791.82,849.069 1788,848.5C 1784.57,849.767 1781.07,850.767 1777.5,851.5C 1778.9,850.069 1780.57,848.902 1782.5,848C 1787.5,847.333 1792.5,847.333 1797.5,848C 1798.42,848.278 1799.08,848.778 1799.5,849.5 Z"></path></g>
<g><path style="opacity:1" fill="#bebdb9" d="M 1571.5,845.5 C 1571.5,850.527 1571.84,855.527 1572.5,860.5C 1571.78,860.082 1571.28,859.416 1571,858.5C 1570.67,858.833 1570.33,859.167 1570,859.5C 1569.33,855.167 1569.33,850.833 1570,846.5C 1570.38,845.944 1570.88,845.611 1571.5,845.5 Z"></path></g>
<g><path style="opacity:1" fill="#f6f5ef" d="M 1799.5,849.5 C 1807.55,852.549 1812.88,858.216 1815.5,866.5C 1820.79,867.495 1826.13,867.828 1831.5,867.5C 1836.1,867.72 1840.43,867.054 1844.5,865.5C 1846.5,865.5 1848.5,865.5 1850.5,865.5C 1851.14,862.408 1851.47,859.242 1851.5,856C 1850.47,855.487 1849.47,854.987 1848.5,854.5C 1847.83,852.833 1847.17,851.167 1846.5,849.5C 1847.5,849.5 1848.5,849.5 1849.5,849.5C 1849.24,850.978 1849.57,852.311 1850.5,853.5C 1851.72,854.002 1852.88,854.335 1854,854.5C 1853.93,858.822 1854.76,863.155 1856.5,867.5C 1860.4,868.268 1864.07,867.434 1867.5,865C 1866.17,864.667 1864.83,864.333 1863.5,864C 1866.15,863.503 1868.81,863.336 1871.5,863.5C 1865,870.365 1861,878.365 1859.5,887.5C 1858.84,890.314 1858.5,893.314 1858.5,896.5C 1858.32,901.107 1858.98,905.44 1860.5,909.5C 1860.38,911.734 1860.71,913.901 1861.5,916C 1865,921.991 1869,927.657 1873.5,933C 1877.74,935.61 1881.74,938.443 1885.5,941.5C 1884.45,941.351 1883.45,941.517 1882.5,942C 1881.74,943.512 1880.74,944.846 1879.5,946C 1873.97,947.787 1869.8,946.287 1867,941.5C 1865.47,942.72 1863.64,943.387 1861.5,943.5C 1856.49,944.492 1854.49,942.492 1855.5,937.5C 1848.67,937.089 1842,937.756 1835.5,939.5C 1836.67,936.473 1836.01,933.806 1833.5,931.5C 1839.5,924.822 1844.5,917.488 1848.5,909.5C 1850.95,907.104 1851.95,904.104 1851.5,900.5C 1850.5,900.5 1849.5,900.5 1848.5,900.5C 1847.5,900.5 1846.5,900.5 1845.5,900.5C 1842.78,899.087 1839.78,898.42 1836.5,898.5C 1831.67,897.9 1826.83,897.234 1822,896.5C 1820.5,896.833 1819,897.167 1817.5,897.5C 1816.83,899.167 1816.17,900.833 1815.5,902.5C 1812.46,906.537 1808.8,909.871 1804.5,912.5C 1800.67,914.074 1796.67,915.074 1792.5,915.5C 1787.88,914.59 1783.21,913.59 1778.5,912.5C 1776.74,911.928 1775.08,911.094 1773.5,910C 1765.89,902.551 1762.56,893.551 1763.5,883C 1763.16,876.647 1764,870.481 1766,864.5C 1767.59,858.085 1771.42,853.752 1777.5,851.5C 1781.07,850.767 1784.57,849.767 1788,848.5C 1791.82,849.069 1795.65,849.403 1799.5,849.5 Z"></path></g>
<g><path style="opacity:1" fill="#7d7c79" d="M 1511.5,857.5 C 1511.77,859.38 1511.1,860.713 1509.5,861.5C 1509.66,859.847 1510.33,858.514 1511.5,857.5 Z"></path></g>
<g><path style="opacity:1" fill="#afabaa" d="M 1848.5,854.5 C 1849.47,854.987 1850.47,855.487 1851.5,856C 1851.47,859.242 1851.14,862.408 1850.5,865.5C 1850.25,861.751 1849.58,858.085 1848.5,854.5 Z"></path></g>
<g><path style="opacity:1" fill="#a5a5a4" d="M 1299.5,761.5 C 1278.99,761.17 1258.66,761.503 1238.5,762.5C 1238.5,816.167 1238.5,869.833 1238.5,923.5C 1238.17,923.5 1237.83,923.5 1237.5,923.5C 1237.5,869.167 1237.5,814.833 1237.5,760.5C 1258.34,760.169 1279.01,760.503 1299.5,761.5 Z"></path></g>
<g><path style="opacity:1" fill="#7f7d7b" d="M 1572.5,861.5 C 1574.25,863.033 1575.25,865.033 1575.5,867.5C 1573.75,865.967 1572.75,863.967 1572.5,861.5 Z"></path></g>
<g><path style="opacity:1" fill="#848484" d="M 1844.5,865.5 C 1840.43,867.054 1836.1,867.72 1831.5,867.5C 1835.59,866.105 1839.92,865.438 1844.5,865.5 Z"></path></g>
<g><path style="opacity:1" fill="#f1f1eb" d="M 1623.5,851.5 C 1623.59,853.696 1623.92,855.863 1624.5,858C 1624.16,859.365 1623.49,860.532 1622.5,861.5C 1624.3,862.788 1625.97,862.788 1627.5,861.5C 1627.83,861.5 1628.17,861.5 1628.5,861.5C 1630.81,861.007 1633.14,860.674 1635.5,860.5C 1639.1,859.656 1642.77,859.323 1646.5,859.5C 1646.5,858.167 1646.5,856.833 1646.5,855.5C 1647.93,854.22 1648.6,852.553 1648.5,850.5C 1649.47,848.393 1649.8,846.059 1649.5,843.5C 1651.2,845.305 1652.03,847.639 1652,850.5C 1653.05,849.483 1654.22,849.316 1655.5,850C 1653.21,850.984 1653.54,851.817 1656.5,852.5C 1658.67,852.273 1660.84,851.94 1663,851.5C 1664.12,857.403 1661.62,860.903 1655.5,862C 1656.93,862.465 1658.1,863.299 1659,864.5C 1660.49,863.253 1661.99,863.253 1663.5,864.5C 1662.76,865.287 1661.92,865.953 1661,866.5C 1657.24,865.596 1653.4,865.762 1649.5,867C 1650.34,868.666 1649.84,868.833 1648,867.5C 1647.76,869.3 1648.26,870.966 1649.5,872.5C 1653.37,872.23 1657.71,872.063 1662.5,872C 1664,873.871 1666,874.871 1668.5,875C 1666,875.129 1664,876.129 1662.5,878C 1665.45,878.139 1667.78,879.306 1669.5,881.5C 1662.79,879.801 1656.12,878.134 1649.5,876.5C 1649.12,878.921 1648.46,881.254 1647.5,883.5C 1642.56,884.392 1637.56,884.726 1632.5,884.5C 1631.83,884.167 1631.17,883.833 1630.5,883.5C 1630.92,882.778 1631.58,882.278 1632.5,882C 1630.84,880.171 1628.84,878.837 1626.5,878C 1628.17,877.667 1629.83,877.333 1631.5,877C 1628.46,876.637 1625.46,876.137 1622.5,875.5C 1620.99,874.164 1619.32,872.997 1617.5,872C 1613.58,867.26 1609.58,862.76 1605.5,858.5C 1604.17,854.167 1604.17,849.833 1605.5,845.5C 1613.48,841.757 1619.48,843.757 1623.5,851.5 Z"></path></g>
<g><path style="opacity:1" fill="#5d5d78" d="M 1623.5,851.5 C 1624.66,854.997 1626,858.33 1627.5,861.5C 1625.97,862.788 1624.3,862.788 1622.5,861.5C 1623.49,860.532 1624.16,859.365 1624.5,858C 1623.92,855.863 1623.59,853.696 1623.5,851.5 Z"></path></g>
<g><path style="opacity:1" fill="#414d48" d="M 1635.5,859.5 C 1635.5,859.833 1635.5,860.167 1635.5,860.5C 1633.14,860.674 1630.81,861.007 1628.5,861.5C 1630.44,859.837 1632.77,859.171 1635.5,859.5 Z"></path></g>
<g><path style="opacity:1" fill="#b5b0ac" d="M 1646.5,855.5 C 1646.5,856.833 1646.5,858.167 1646.5,859.5C 1642.77,859.323 1639.1,859.656 1635.5,860.5C 1635.5,860.167 1635.5,859.833 1635.5,859.5C 1639.26,858.314 1642.93,856.981 1646.5,855.5 Z"></path></g>
<g><path style="opacity:1" fill="#f4f3f0" d="M 1196.5,761.5 C 1197.17,789.373 1197.84,817.373 1198.5,845.5C 1197.42,877.302 1197.26,909.302 1198,941.5C 1198.33,942.5 1198.67,943.5 1199,944.5C 1199.09,920.134 1199.92,895.801 1201.5,871.5C 1202.57,882.229 1203.24,892.896 1203.5,903.5C 1207.32,903.67 1211.32,903.67 1215.5,903.5C 1215.5,906.167 1215.5,908.833 1215.5,911.5C 1214.5,911.5 1213.5,911.5 1212.5,911.5C 1212.5,914.167 1212.5,916.833 1212.5,919.5C 1213.5,919.5 1214.5,919.5 1215.5,919.5C 1215.5,922.167 1215.5,924.833 1215.5,927.5C 1212.83,927.5 1210.17,927.5 1207.5,927.5C 1206.64,935.449 1205.47,935.449 1204,927.5C 1203.19,933.084 1203.36,938.584 1204.5,944C 1203.03,948.031 1200.37,949.365 1196.5,948C 1197.73,949.183 1197.73,950.349 1196.5,951.5C 1195.3,951.154 1195.3,950.654 1196.5,950C 1195.83,949.833 1195.17,949.667 1194.5,949.5C 1192.42,950.892 1190.09,951.558 1187.5,951.5C 1173.69,949.898 1159.69,948.731 1145.5,948C 1160.5,947.333 1175.5,947.333 1190.5,948C 1189.3,948.654 1189.3,949.154 1190.5,949.5C 1191.79,948.902 1193.13,948.402 1194.5,948C 1192.12,947.777 1190.45,946.61 1189.5,944.5C 1192.06,944.802 1194.39,944.468 1196.5,943.5C 1196.5,942.833 1196.5,942.167 1196.5,941.5C 1196.5,881.5 1196.5,821.5 1196.5,761.5 Z"></path></g>
<g><path style="opacity:1" fill="#5c5251" d="M 1578.5,872.5 C 1579.4,873.209 1579.74,874.209 1579.5,875.5C 1577.78,875.629 1576.12,875.962 1574.5,876.5C 1575.83,875.167 1577.17,873.833 1578.5,872.5 Z"></path></g>
<g><path style="opacity:1" fill="#cdc3bc" d="M 1622.5,875.5 C 1625.46,876.137 1628.46,876.637 1631.5,877C 1629.83,877.333 1628.17,877.667 1626.5,878C 1628.84,878.837 1630.84,880.171 1632.5,882C 1631.58,882.278 1630.92,882.778 1630.5,883.5C 1627.32,881.263 1624.65,878.597 1622.5,875.5 Z"></path></g>
<g><path style="opacity:1" fill="#070203" d="M 1950.5,864.5 C 1952.42,867.106 1954.42,869.773 1956.5,872.5C 1957.32,874.974 1958.32,877.307 1959.5,879.5C 1959.75,883.04 1960.42,886.373 1961.5,889.5C 1961.64,895.536 1961.31,901.536 1960.5,907.5C 1959.98,910.89 1959.14,914.223 1958,917.5C 1955.97,920.245 1954.3,923.245 1953,926.5C 1949.96,929.369 1947.13,932.369 1944.5,935.5C 1941.17,936.641 1938.17,938.474 1935.5,941C 1929.93,942.057 1924.59,943.724 1919.5,946C 1913.51,946.499 1907.51,946.666 1901.5,946.5C 1898.75,945.054 1895.75,944.054 1892.5,943.5C 1890.08,943.122 1887.75,942.455 1885.5,941.5C 1881.74,938.443 1877.74,935.61 1873.5,933C 1869,927.657 1865,921.991 1861.5,916C 1860.71,913.901 1860.38,911.734 1860.5,909.5C 1859.88,902.183 1859.55,894.849 1859.5,887.5C 1861,878.365 1865,870.365 1871.5,863.5C 1874.73,862.05 1877.39,859.883 1879.5,857C 1882.94,854.688 1886.61,852.854 1890.5,851.5C 1896.8,850.342 1903.13,849.342 1909.5,848.5C 1925.31,848.846 1938.97,854.18 1950.5,864.5 Z"></path></g>
<g><path style="opacity:1" fill="#a09a96" d="M 1902.5,879.5 C 1901.53,882.135 1899.86,884.135 1897.5,885.5C 1897.79,882.199 1899.46,880.199 1902.5,879.5 Z"></path></g>
<g><path style="opacity:1" fill="#738384" d="M 1917.5,877.5 C 1913.5,877.5 1909.5,877.5 1905.5,877.5C 1907.29,876.003 1909.46,875.336 1912,875.5C 1913.5,875.667 1915,875.833 1916.5,876C 1917.06,876.383 1917.39,876.883 1917.5,877.5 Z"></path></g>
<g><path style="opacity:1" fill="#5f5f5c" d="M 1728.5,861.5 C 1725.91,871.966 1724.91,882.632 1725.5,893.5C 1724.17,884.295 1724.34,874.962 1726,865.5C 1726.61,863.934 1727.44,862.6 1728.5,861.5 Z"></path></g>
<g><path style="opacity:1" fill="#636360" d="M 1959.5,879.5 C 1961.04,881.838 1961.71,884.505 1961.5,887.5C 1961.5,888.167 1961.5,888.833 1961.5,889.5C 1960.42,886.373 1959.75,883.04 1959.5,879.5 Z"></path></g>
<g><path style="opacity:1" fill="#f2f4ea" d="M 1905.5,877.5 C 1909.5,877.5 1913.5,877.5 1917.5,877.5C 1918.24,877.369 1918.91,877.536 1919.5,878C 1921.43,880.738 1923.43,883.238 1925.5,885.5C 1925.5,888.167 1925.5,890.833 1925.5,893.5C 1925.5,894.833 1925.5,896.167 1925.5,897.5C 1919.16,897.334 1912.82,897.5 1906.5,898C 1905.83,898.667 1905.17,899.333 1904.5,900C 1911.78,902.015 1919.11,902.515 1926.5,901.5C 1926.67,902.822 1926.34,903.989 1925.5,905C 1917.65,905.382 1909.99,906.548 1902.5,908.5C 1902.33,907.178 1902.66,906.011 1903.5,905C 1901.61,903.899 1900.94,902.566 1901.5,901C 1900.45,899.881 1899.28,899.381 1898,899.5C 1897.58,900.756 1896.75,901.423 1895.5,901.5C 1895.15,896.009 1895.82,890.676 1897.5,885.5C 1899.86,884.135 1901.53,882.135 1902.5,879.5C 1903.22,878.449 1904.22,877.782 1905.5,877.5 Z"></path></g>
<g><path style="opacity:1" fill="#48504d" d="M 1925.5,885.5 C 1926.53,887.961 1927.2,890.627 1927.5,893.5C 1926.83,893.5 1926.17,893.5 1925.5,893.5C 1925.5,890.833 1925.5,888.167 1925.5,885.5 Z"></path></g>
<g><path style="opacity:1" fill="#b9b8b6" d="M 1961.5,887.5 C 1963.22,889.78 1963.89,892.447 1963.5,895.5C 1964.23,900.114 1963.23,904.114 1960.5,907.5C 1961.31,901.536 1961.64,895.536 1961.5,889.5C 1961.5,888.833 1961.5,888.167 1961.5,887.5 Z"></path></g>
<g><path style="opacity:1" fill="#090405" d="M 1617.5,819.5 C 1625.9,820.581 1633.23,823.914 1639.5,829.5C 1640.17,830.833 1641.17,831.833 1642.5,832.5C 1644.95,834.632 1646.62,837.299 1647.5,840.5C 1647.83,843.833 1648.17,847.167 1648.5,850.5C 1648.6,852.553 1647.93,854.22 1646.5,855.5C 1642.93,856.981 1639.26,858.314 1635.5,859.5C 1632.77,859.171 1630.44,859.837 1628.5,861.5C 1628.17,861.5 1627.83,861.5 1627.5,861.5C 1626,858.33 1624.66,854.997 1623.5,851.5C 1619.48,843.757 1613.48,841.757 1605.5,845.5C 1604.21,847.048 1603.54,849.048 1603.5,851.5C 1603.67,853.5 1603.83,855.5 1604,857.5C 1604.38,858.056 1604.88,858.389 1605.5,858.5C 1609.58,862.76 1613.58,867.26 1617.5,872C 1619.32,872.997 1620.99,874.164 1622.5,875.5C 1624.65,878.597 1627.32,881.263 1630.5,883.5C 1631.17,883.833 1631.83,884.167 1632.5,884.5C 1632.5,886.5 1633.5,887.5 1635.5,887.5C 1637.16,890.833 1639.83,892.5 1643.5,892.5C 1643.12,890.302 1643.79,888.635 1645.5,887.5C 1647.18,886.817 1647.84,885.483 1647.5,883.5C 1648.46,881.254 1649.12,878.921 1649.5,876.5C 1656.12,878.134 1662.79,879.801 1669.5,881.5C 1671.88,883.046 1674.55,883.713 1677.5,883.5C 1677.54,886.425 1676.71,889.091 1675,891.5C 1670.51,898.645 1665.67,905.478 1660.5,912C 1669.35,922.349 1678.35,932.516 1687.5,942.5C 1687.61,943.117 1687.94,943.617 1688.5,944C 1675.76,944.812 1663.09,944.646 1650.5,943.5C 1650.26,941.596 1649.26,940.262 1647.5,939.5C 1645.3,936.393 1642.63,933.726 1639.5,931.5C 1622.33,945.601 1603,949.601 1581.5,943.5C 1568.57,939.101 1559.9,930.434 1555.5,917.5C 1555.41,915.214 1554.74,913.214 1553.5,911.5C 1553.09,895.306 1560.09,883.64 1574.5,876.5C 1576.12,875.962 1577.78,875.629 1579.5,875.5C 1579.74,874.209 1579.4,873.209 1578.5,872.5C 1577.74,870.632 1576.74,868.965 1575.5,867.5C 1575.25,865.033 1574.25,863.033 1572.5,861.5C 1572.5,861.167 1572.5,860.833 1572.5,860.5C 1571.84,855.527 1571.5,850.527 1571.5,845.5C 1572.5,842.833 1573.5,840.167 1574.5,837.5C 1576.82,836.198 1578.16,834.198 1578.5,831.5C 1584.08,825.964 1590.75,822.297 1598.5,820.5C 1604.77,819.582 1611.11,819.249 1617.5,819.5 Z"></path></g>
<g><path style="opacity:1" fill="#e6e7d1" d="M 1645.5,887.5 C 1643.79,888.635 1643.12,890.302 1643.5,892.5C 1639.83,892.5 1637.16,890.833 1635.5,887.5C 1635.39,886.883 1635.06,886.383 1634.5,886C 1636.33,885.833 1638.17,885.667 1640,885.5C 1642.3,885.547 1644.13,886.213 1645.5,887.5 Z"></path></g>
<g><path style="opacity:1" fill="#b6b3b4" d="M 1647.5,883.5 C 1647.84,885.483 1647.18,886.817 1645.5,887.5C 1644.13,886.213 1642.3,885.547 1640,885.5C 1638.17,885.667 1636.33,885.833 1634.5,886C 1635.06,886.383 1635.39,886.883 1635.5,887.5C 1633.5,887.5 1632.5,886.5 1632.5,884.5C 1637.56,884.726 1642.56,884.392 1647.5,883.5 Z"></path></g>
<g><path style="opacity:1" fill="#959288" d="M 1605.5,845.5 C 1604.17,849.833 1604.17,854.167 1605.5,858.5C 1604.88,858.389 1604.38,858.056 1604,857.5C 1603.83,855.5 1603.67,853.5 1603.5,851.5C 1603.54,849.048 1604.21,847.048 1605.5,845.5 Z"></path></g>
<g><path style="opacity:1" fill="#706e6e" d="M 1133.5,761.5 C 1133.5,761.833 1133.5,762.167 1133.5,762.5C 1133.5,822.833 1133.5,883.167 1133.5,943.5C 1154.5,943.5 1175.5,943.5 1196.5,943.5C 1194.39,944.468 1192.06,944.802 1189.5,944.5C 1170.5,944.5 1151.5,944.5 1132.5,944.5C 1132.17,883.331 1132.5,822.331 1133.5,761.5 Z"></path></g>
<g><path style="opacity:1" fill="#514d47" d="M 1859.5,887.5 C 1859.55,894.849 1859.88,902.183 1860.5,909.5C 1858.98,905.44 1858.32,901.107 1858.5,896.5C 1858.5,893.314 1858.84,890.314 1859.5,887.5 Z"></path></g>
<g><path style="opacity:1" fill="#5b555b" d="M 1836.5,898.5 C 1839.78,898.42 1842.78,899.087 1845.5,900.5C 1842.17,900.785 1839.17,900.118 1836.5,898.5 Z"></path></g>
<g><path style="opacity:1" fill="#8b8a85" d="M 1725.5,895.5 C 1726.25,898.201 1727.25,900.868 1728.5,903.5C 1725.83,901.609 1724.83,898.942 1725.5,895.5 Z"></path></g>
<g><path style="opacity:1" fill="#584e49" d="M 1897.5,885.5 C 1895.82,890.676 1895.15,896.009 1895.5,901.5C 1895.5,902.167 1895.5,902.833 1895.5,903.5C 1894.35,899.019 1894.18,894.352 1895,889.5C 1895.2,887.68 1896.03,886.347 1897.5,885.5 Z"></path></g>
<g><path style="opacity:1" fill="#ecece7" d="M 1925.5,893.5 C 1926.17,893.5 1926.83,893.5 1927.5,893.5C 1928.04,899.449 1927.2,905.116 1925,910.5C 1916.39,920.81 1907.39,921.144 1898,911.5C 1896.39,909.061 1895.56,906.394 1895.5,903.5C 1895.5,902.833 1895.5,902.167 1895.5,901.5C 1896.75,901.423 1897.58,900.756 1898,899.5C 1899.28,899.381 1900.45,899.881 1901.5,901C 1900.94,902.566 1901.61,903.899 1903.5,905C 1902.66,906.011 1902.33,907.178 1902.5,908.5C 1909.99,906.548 1917.65,905.382 1925.5,905C 1926.34,903.989 1926.67,902.822 1926.5,901.5C 1919.11,902.515 1911.78,902.015 1904.5,900C 1905.17,899.333 1905.83,898.667 1906.5,898C 1912.82,897.5 1919.16,897.334 1925.5,897.5C 1925.5,896.167 1925.5,894.833 1925.5,893.5 Z"></path></g>
<g><path style="opacity:1" fill="#9b9484" d="M 1848.5,900.5 C 1849.5,900.5 1850.5,900.5 1851.5,900.5C 1851.95,904.104 1850.95,907.104 1848.5,909.5C 1848.39,908.883 1848.06,908.383 1847.5,908C 1850.87,905.728 1851.21,903.228 1848.5,900.5 Z"></path></g>
<g><path style="opacity:1" fill="#efeeec" d="M 1604.5,897.5 C 1609.18,901.504 1613.85,905.504 1618.5,909.5C 1619.69,911.792 1619.69,914.126 1618.5,916.5C 1611.43,918.775 1604.1,919.775 1596.5,919.5C 1596.5,918.5 1596.5,917.5 1596.5,916.5C 1594.71,916.785 1593.05,916.452 1591.5,915.5C 1587.26,910.443 1586.43,904.777 1589,898.5C 1590.3,895.362 1592.47,893.029 1595.5,891.5C 1599.07,892.781 1602.07,894.781 1604.5,897.5 Z"></path></g>
<g><path style="opacity:1" fill="#02020f" d="M 1620.5,909.5 C 1619.83,909.5 1619.17,909.5 1618.5,909.5C 1613.85,905.504 1609.18,901.504 1604.5,897.5C 1609.37,897.309 1614.21,897.642 1619,898.5C 1628.46,896.306 1637.96,896.306 1647.5,898.5C 1647.29,899.086 1646.96,899.586 1646.5,900C 1638.45,900.802 1630.45,900.635 1622.5,899.5C 1619.43,899.87 1616.76,901.037 1614.5,903C 1615.1,905.048 1616.43,906.215 1618.5,906.5C 1621.41,905.419 1624.41,904.752 1627.5,904.5C 1633.82,905.155 1640.15,905.655 1646.5,906C 1647.34,907.011 1647.67,908.178 1647.5,909.5C 1638.5,909.5 1629.5,909.5 1620.5,909.5 Z"></path></g>
<g><path style="opacity:1" fill="#80736c" d="M 1618.5,909.5 C 1619.17,909.5 1619.83,909.5 1620.5,909.5C 1622.25,912.571 1621.59,914.904 1618.5,916.5C 1619.69,914.126 1619.69,911.792 1618.5,909.5 Z"></path></g>
<g><path style="opacity:1" fill="#777773" d="M 1553.5,911.5 C 1554.74,913.214 1555.41,915.214 1555.5,917.5C 1553.72,916.01 1553.05,914.01 1553.5,911.5 Z"></path></g>
<g><path style="opacity:1" fill="#928f8a" d="M 1778.5,912.5 C 1783.21,913.59 1787.88,914.59 1792.5,915.5C 1796.67,915.074 1800.67,914.074 1804.5,912.5C 1801.14,915.919 1796.97,917.252 1792,916.5C 1786.75,917.211 1782.25,915.878 1778.5,912.5 Z"></path></g>
<g><path style="opacity:1" fill="#f0eeec" d="M 1492.5,886.5 C 1492.37,889.236 1491.87,891.903 1491,894.5C 1490.14,890.903 1488.97,891.07 1487.5,895C 1488.23,900.422 1488.23,905.922 1487.5,911.5C 1482.62,910.589 1478.62,911.922 1475.5,915.5C 1473.62,915.124 1472.12,914.124 1471,912.5C 1470.51,913.549 1470.67,914.549 1471.5,915.5C 1470.83,915.833 1470.17,916.167 1469.5,916.5C 1470.03,917.192 1470.69,917.692 1471.5,918C 1470.46,919.617 1469.3,919.784 1468,918.5C 1467.17,919.333 1466.33,920.167 1465.5,921C 1462.83,921.333 1460.17,921.667 1457.5,922C 1456.13,923.6 1455.13,925.433 1454.5,927.5C 1453.25,926.96 1452.09,926.293 1451,925.5C 1448.32,927.678 1445.82,930.011 1443.5,932.5C 1441.41,930.135 1438.75,929.135 1435.5,929.5C 1445.71,923.386 1456.04,917.219 1466.5,911C 1475.99,903.671 1484.66,895.504 1492.5,886.5 Z"></path></g>
<g><path style="opacity:1" fill="#f2f1ed" d="M 1963.5,895.5 C 1964.22,895.918 1964.72,896.584 1965,897.5C 1965.33,896.833 1965.67,896.167 1966,895.5C 1966.33,896.833 1966.67,898.167 1967,899.5C 1967.48,898.552 1967.65,897.552 1967.5,896.5C 1970.17,897.167 1972.83,897.833 1975.5,898.5C 1975.5,900.167 1975.5,901.833 1975.5,903.5C 1974.13,903.343 1972.79,903.51 1971.5,904C 1977.13,905.93 1982.79,907.764 1988.5,909.5C 1989,908.397 1989.33,907.397 1989.5,906.5C 1991,907.59 1991.34,908.757 1990.5,910C 1995.84,911.996 2001.01,911.829 2006,909.5C 2007.22,910.272 2008.22,911.272 2009,912.5C 2010.01,911.663 2011.18,911.33 2012.5,911.5C 2013.73,914.003 2014.73,916.669 2015.5,919.5C 2015.71,922.229 2014.87,924.562 2013,926.5C 2012,924.167 2011,921.833 2010,919.5C 2009.83,920.167 2009.67,920.833 2009.5,921.5C 2010.37,927.61 2011.04,933.943 2011.5,940.5C 2012.55,940.351 2013.55,940.517 2014.5,941C 2012.67,941.5 2011.5,942.667 2011,944.5C 2010.36,943.354 2009.52,942.354 2008.5,941.5C 2009.04,940.252 2009.71,939.085 2010.5,938C 2010.17,937.833 2009.83,937.667 2009.5,937.5C 2008.4,939.611 2006.73,940.945 2004.5,941.5C 2004.59,942.496 2004.25,943.329 2003.5,944C 2004.17,944.333 2004.83,944.667 2005.5,945C 1999.83,945.464 1999.49,946.131 2004.5,947C 2002.49,948.791 2002.49,950.125 2004.5,951C 2004,951.167 2003.5,951.333 2003,951.5C 2000.65,951.265 1998.15,951.099 1995.5,951C 1997.12,950.147 1997.46,949.147 1996.5,948C 1997.5,947.667 1998.5,947.333 1999.5,947C 1995.19,947.033 1990.85,947.366 1986.5,948C 1986.17,948.333 1985.83,948.667 1985.5,949C 1986.5,949.333 1987.5,949.667 1988.5,950C 1986.04,951.632 1983.71,951.632 1981.5,950C 1978.85,949.503 1976.19,949.336 1973.5,949.5C 1973.5,948.5 1973.5,947.5 1973.5,946.5C 1970.98,946.872 1968.98,946.039 1967.5,944C 1968.31,943.692 1968.97,943.192 1969.5,942.5C 1968.83,942.167 1968.17,941.833 1967.5,941.5C 1968.43,940.232 1968.59,938.899 1968,937.5C 1967,937.833 1966,938.167 1965,938.5C 1964.68,936.699 1964.02,936.366 1963,937.5C 1961.66,935.996 1960,934.996 1958,934.5C 1957.54,933.256 1958.04,932.423 1959.5,932C 1954.48,931.456 1954.48,930.289 1959.5,928.5C 1957.33,923.55 1955.99,923.55 1955.5,928.5C 1954.02,928.238 1952.69,928.571 1951.5,929.5C 1951.71,930.086 1952.04,930.586 1952.5,931C 1950.85,932.827 1950.01,934.66 1950,936.5C 1948.3,935.594 1946.47,935.261 1944.5,935.5C 1947.13,932.369 1949.96,929.369 1953,926.5C 1954.3,923.245 1955.97,920.245 1958,917.5C 1959.14,914.223 1959.98,910.89 1960.5,907.5C 1963.23,904.114 1964.23,900.114 1963.5,895.5 Z"></path></g>
<g><path style="opacity:1" fill="#0a0505" d="M 2007.5,936.5 C 2006.09,936.973 2005.43,937.973 2005.5,939.5C 2005.17,940.167 2004.83,940.833 2004.5,941.5C 2001.3,944.011 1997.64,945.345 1993.5,945.5C 1991.4,945.799 1989.4,945.466 1987.5,944.5C 1986.87,941.795 1986.54,939.128 1986.5,936.5C 1984.6,935.534 1982.6,935.201 1980.5,935.5C 1980.84,937.483 1980.18,938.817 1978.5,939.5C 1977.83,939.5 1977.17,939.5 1976.5,939.5C 1969.99,924.848 1974.49,915.515 1990,911.5C 2005.13,913.448 2010.96,921.781 2007.5,936.5 Z"></path></g>
<g><path style="opacity:1" fill="#686868" d="M 2007.5,936.5 C 2007.57,938.027 2006.91,939.027 2005.5,939.5C 2005.43,937.973 2006.09,936.973 2007.5,936.5 Z"></path></g>
<g><path style="opacity:1" fill="#8e8a88" d="M 1403.5,939.5 C 1401.49,940.924 1399.15,941.59 1396.5,941.5C 1398.51,940.076 1400.85,939.41 1403.5,939.5 Z"></path></g>
<g><path style="opacity:1" fill="#7b7d7b" d="M 1647.5,939.5 C 1649.26,940.262 1650.26,941.596 1650.5,943.5C 1650.17,943.5 1649.83,943.5 1649.5,943.5C 1648.4,942.395 1647.73,941.062 1647.5,939.5 Z"></path></g>
<g><path style="opacity:1" fill="#2c1e15" d="M 1993.5,945.5 C 1990.83,946.833 1988.17,946.833 1985.5,945.5C 1983.75,942.808 1981.42,940.808 1978.5,939.5C 1980.18,938.817 1980.84,937.483 1980.5,935.5C 1982.6,935.201 1984.6,935.534 1986.5,936.5C 1986.54,939.128 1986.87,941.795 1987.5,944.5C 1989.4,945.466 1991.4,945.799 1993.5,945.5 Z"></path></g>
<g><path style="opacity:1" fill="#8c8b8a" d="M 836.5,761.5 C 836.5,822.167 836.5,882.833 836.5,943.5C 857.167,943.5 877.833,943.5 898.5,943.5C 877.673,944.497 856.673,944.831 835.5,944.5C 835.168,883.331 835.501,822.331 836.5,761.5 Z"></path></g>
<g><path style="opacity:1" fill="#686665" d="M 1237.5,923.5 C 1237.83,923.5 1238.17,923.5 1238.5,923.5C 1238.5,930.167 1238.5,936.833 1238.5,943.5C 1284.17,943.5 1329.83,943.5 1375.5,943.5C 1329.67,944.499 1283.67,944.832 1237.5,944.5C 1237.5,937.5 1237.5,930.5 1237.5,923.5 Z"></path></g>
<g><path style="opacity:1" fill="#f3f1ec" d="M 1647.5,939.5 C 1647.73,941.062 1648.4,942.395 1649.5,943.5C 1647.8,945.305 1646.97,947.639 1647,950.5C 1645.25,949.191 1643.75,949.525 1642.5,951.5C 1639.17,950.167 1635.83,948.833 1632.5,947.5C 1632.06,948.698 1631.73,949.865 1631.5,951C 1623.78,951.257 1616.11,951.423 1608.5,951.5C 1607.83,951.167 1607.17,950.833 1606.5,950.5C 1607.73,949.719 1609.06,949.219 1610.5,949C 1610,948.5 1609.5,948 1609,947.5C 1603.62,947.535 1598.12,947.702 1592.5,948C 1587.23,948.813 1587.23,949.313 1592.5,949.5C 1602.9,948.634 1602.73,949.3 1592,951.5C 1588.89,950.633 1585.73,950.299 1582.5,950.5C 1582.7,948.05 1582.37,945.717 1581.5,943.5C 1603,949.601 1622.33,945.601 1639.5,931.5C 1642.63,933.726 1645.3,936.393 1647.5,939.5 Z"></path></g>
<g><path style="opacity:1" fill="#5a4f4d" d="M 1976.5,939.5 C 1977.17,939.5 1977.83,939.5 1978.5,939.5C 1981.42,940.808 1983.75,942.808 1985.5,945.5C 1981.63,944.737 1978.63,942.737 1976.5,939.5 Z"></path></g>
<g><path style="opacity:1" fill="#8e8a87" d="M 1687.5,942.5 C 1689.05,942.821 1689.71,943.821 1689.5,945.5C 1676.12,946.148 1663.12,945.481 1650.5,943.5C 1663.09,944.646 1675.76,944.812 1688.5,944C 1687.94,943.617 1687.61,943.117 1687.5,942.5 Z"></path></g>
<g><path style="opacity:1" fill="#857d7a" d="M 1817.5,941.5 C 1812.89,943.905 1807.89,945.238 1802.5,945.5C 1807.28,943.721 1812.28,942.387 1817.5,941.5 Z"></path></g>
<g><path style="opacity:1" fill="#968c8b" d="M 1892.5,943.5 C 1895.75,944.054 1898.75,945.054 1901.5,946.5C 1898.01,946.554 1895.01,945.554 1892.5,943.5 Z"></path></g>
<g><path style="opacity:1" fill="#f1eeeb" d="M 1833.5,931.5 C 1833.41,937.055 1831.74,942.055 1828.5,946.5C 1829.27,948.708 1830.11,948.375 1831,945.5C 1831.49,946.793 1831.66,948.127 1831.5,949.5C 1828.76,948.49 1826.42,948.824 1824.5,950.5C 1823.55,949.674 1822.55,949.508 1821.5,950C 1822.7,950.654 1822.7,951.154 1821.5,951.5C 1820.72,950.271 1820.22,948.938 1820,947.5C 1818.84,951.173 1816.67,954.173 1813.5,956.5C 1814.17,957.167 1814.83,957.833 1815.5,958.5C 1813.08,958.214 1810.91,958.548 1809,959.5C 1808.69,958.258 1809.19,957.258 1810.5,956.5C 1807.13,953.652 1803.3,951.652 1799,950.5C 1794.88,950.406 1790.72,950.739 1786.5,951.5C 1783.87,951.679 1781.54,951.013 1779.5,949.5C 1778.5,950.167 1777.5,950.833 1776.5,951.5C 1774.09,947.883 1771.25,947.55 1768,950.5C 1767.5,948.19 1767.34,945.857 1767.5,943.5C 1779.07,945.976 1790.73,946.642 1802.5,945.5C 1807.89,945.238 1812.89,943.905 1817.5,941.5C 1822.73,938.208 1828.06,934.874 1833.5,931.5 Z"></path></g>
</svg>