<svg width="200" height="76" viewBox="0 0 200 76" fill="none" xmlns="http://www.w3.org/2000/svg">
<g clip-path="url(#clip0_62_11798)">
<path d="M128.076 31.5683C130.53 31.5683 132.551 33.4513 132.551 35.9016C132.551 38.3645 130.53 40.3846 128.076 40.3846H95.6324C87.4643 40.3846 82.2678 35.1279 82.2678 28.0517C82.2678 20.9715 87.4643 15.7828 95.6324 15.7828H119.185C121.86 15.7828 123.588 14.3214 123.588 12.3741C123.588 10.0571 121.786 8.88784 119.185 8.88784H81.9019C79.6879 8.88784 77.8866 10.4184 77.5561 12.3614V27.6692C77.5561 34.6764 71.4858 40.3846 64.1224 40.3846H56.363C48.9261 40.3846 42.9291 34.6764 42.9291 27.6692V18.9987C42.9291 16.6857 41.0507 14.8806 38.5964 14.8806C36.1414 14.8806 34.263 16.6857 34.263 18.9987V27.6692C34.263 34.6764 28.1932 40.3846 20.8208 40.3846H13.4525C6.01131 40.3846 0.0146093 34.6764 0.0146093 27.6692V4.48175C0.0146093 2.02697 2.03494 0.0753784 4.49407 0.0753784C6.94846 0.0753784 9.04631 2.02697 9.04631 4.48175V27.4501C9.04631 29.694 10.9208 31.5683 13.4525 31.5683H20.7518C23.2795 31.5683 25.2998 29.694 25.2998 27.4501V18.9987C25.2998 11.9186 31.0819 6.28237 38.5964 6.28237C45.9642 6.28237 51.8881 11.9874 51.8881 18.9987V27.4501C51.8881 29.694 53.9127 31.5683 56.4406 31.5683H64.1224C66.577 31.5683 68.5285 29.694 68.5285 27.4501L68.5373 12.7911C68.5373 5.77986 74.607 0.0753784 81.9019 0.0753784H119.185C127.271 0.0753784 132.551 5.21682 132.551 12.3741C132.551 18.9469 127.215 24.5957 119.185 24.5957H95.6324C93.0273 24.5957 91.226 25.9238 91.226 28.095C91.226 30.3345 93.2511 31.5683 95.6324 31.5683H128.076Z" fill="white"/>
<path d="M195.524 40.3846H149.286C141.918 40.3846 135.921 34.6764 135.921 27.6692V12.7911C135.921 5.77986 141.918 0.0753784 149.286 0.0753784H195.524C197.982 0.0753784 200.002 2.02697 200.002 4.48175C200.002 6.93585 197.982 8.88784 195.524 8.88784H149.363C146.831 8.88784 144.88 10.7663 144.88 13.0063V27.4501C144.88 29.694 146.831 31.5683 149.363 31.5683H195.524C197.982 31.5683 200.002 33.5196 200.002 35.9792C200.002 38.4336 197.982 40.3846 195.524 40.3846Z" fill="white"/>
<path d="M180.635 75.8567C180.33 75.8567 180.105 75.6269 180.105 75.3398V71.4593C180.105 71.1721 180.33 70.9432 180.635 70.9432C180.939 70.9432 181.158 71.1721 181.158 71.4593V75.3398C181.158 75.6269 180.939 75.8567 180.635 75.8567Z" fill="white"/>
<path d="M173.398 75.8567C173.111 75.8567 172.874 75.6269 172.874 75.3398V73.9861L167.542 73.9248L167.461 75.3398C167.461 75.6269 167.221 75.8567 166.934 75.8567C166.647 75.8567 166.407 75.6269 166.407 75.3398V71.4593C166.407 71.1721 166.647 70.9432 166.934 70.9432C167.221 70.9432 167.461 71.1721 167.461 71.4593V72.8238L172.787 72.8912L172.874 71.4593C172.874 71.1721 173.111 70.9432 173.398 70.9432C173.685 70.9432 173.924 71.1721 173.924 71.4593V75.3398C173.924 75.6269 173.685 75.8567 173.398 75.8567Z" fill="white"/>
<path d="M159.697 71.9767H154.276C153.946 71.9767 153.76 72.1717 153.76 72.4357C153.76 72.6894 153.946 72.8912 154.276 72.8912H158.647C159.508 72.8912 160.214 73.5434 160.214 74.3742C160.214 75.212 159.521 75.8567 158.647 75.8567H153.223C152.94 75.8567 152.703 75.6269 152.703 75.3398C152.703 75.0529 152.94 74.8231 153.223 74.8231H158.647C158.95 74.8231 159.163 74.6374 159.163 74.3742C159.163 74.1105 158.943 73.9248 158.647 73.9248H154.276C153.409 73.9248 152.71 73.2796 152.71 72.4357C152.71 71.5979 153.409 70.9432 154.276 70.9432H159.697C159.984 70.9432 160.224 71.1721 160.224 71.4593C160.224 71.7467 159.984 71.9767 159.697 71.9767Z" fill="white"/>
<path d="M144.946 75.8567H143.798C142.923 75.8567 142.244 75.1984 142.244 74.3633V72.4593C142.244 72.1956 142.018 71.9767 141.721 71.9767H140.566C140.278 71.9767 140.049 72.1956 140.049 72.4593V75.3398C140.049 75.6269 139.812 75.8567 139.525 75.8567C139.238 75.8567 139.002 75.6269 139.002 75.3398V72.4357C139.002 71.6115 139.714 70.9432 140.566 70.9432H141.727C142.581 70.9432 143.294 71.6115 143.294 72.4357V74.3402C143.294 74.6143 143.507 74.8231 143.798 74.8231H144.946C145.236 74.8231 145.466 74.6034 145.466 74.3402V71.4593C145.466 71.1721 145.698 70.9432 145.989 70.9432C146.276 70.9432 146.512 71.1721 146.512 71.4593V74.3633C146.512 75.1884 145.8 75.8567 144.946 75.8567Z" fill="white"/>
<path d="M131.765 74.3402V72.4593C131.765 72.1956 131.535 71.9767 131.245 71.9767H126.865C126.578 71.9767 126.348 72.1956 126.348 72.4593V74.3402C126.348 74.6034 126.578 74.8231 126.865 74.8231H131.245C131.535 74.8231 131.765 74.6034 131.765 74.3402ZM132.812 74.3633C132.812 75.1884 132.103 75.8567 131.245 75.8567H126.865C126.01 75.8567 125.294 75.1884 125.294 74.3633V72.4357C125.294 71.6115 126.01 70.9432 126.865 70.9432H131.245C132.103 70.9432 132.812 71.6115 132.812 72.4357V74.3633Z" fill="white"/>
<path d="M118.588 75.8567C118.284 75.8567 118.064 75.6269 118.064 75.3398V71.4593C118.064 71.1721 118.284 70.9432 118.588 70.9432C118.891 70.9432 119.114 71.1721 119.114 71.4593V75.3398C119.114 75.6269 118.891 75.8567 118.588 75.8567Z" fill="white"/>
<path d="M110.31 73.9248H106.676C106.386 73.9248 106.153 73.695 106.153 73.4081C106.153 73.121 106.386 72.8912 106.676 72.8912H110.31C110.624 72.8912 110.827 72.6894 110.827 72.4357C110.827 72.2057 110.614 71.9767 110.31 71.9767H105.933C105.636 71.9767 105.413 72.1956 105.413 72.4593V75.3398C105.413 75.6269 105.177 75.8567 104.886 75.8567C104.599 75.8567 104.363 75.6269 104.363 75.3398V72.4357C104.363 71.6115 105.065 70.9432 105.933 70.9432H110.31C111.168 70.9432 111.877 71.5979 111.877 72.4357C111.877 73.2735 111.181 73.9248 110.31 73.9248Z" fill="white"/>
<path d="M97.6526 75.8567C97.3657 75.8567 97.1189 75.6269 97.1189 75.3398V72.4593C97.1189 72.1956 96.8897 71.9767 96.6027 71.9767H95.7514C95.4576 71.9767 95.221 72.1956 95.221 72.4593V73.4514C95.221 74.273 94.5254 74.9413 93.6611 74.9413C92.7798 74.9413 92.1005 74.2791 92.1005 73.4514V72.4593C92.1005 72.1956 91.8645 71.9767 91.5708 71.9767H90.7126C90.4155 71.9767 90.1958 72.1956 90.1958 72.4593V75.3398C90.1958 75.6269 89.9497 75.8567 89.662 75.8567C89.3751 75.8567 89.1357 75.6269 89.1357 75.3398V72.4357C89.1357 71.6115 89.8416 70.9432 90.7126 70.9432H91.5803C92.4385 70.9432 93.1545 71.6115 93.1545 72.4357V73.4514C93.1545 73.7221 93.3768 73.9351 93.6611 73.9351C93.9514 73.9351 94.1711 73.7221 94.1711 73.4514V72.4357C94.1711 71.6115 94.8735 70.9432 95.7446 70.9432H96.6027C97.467 70.9432 98.1796 71.6115 98.1796 72.4357V75.3398C98.1796 75.6269 97.9396 75.8567 97.6526 75.8567Z" fill="white"/>
<path d="M68.7277 75.8567C68.4374 75.8567 68.2007 75.6269 68.2007 75.3398V73.9861L62.8719 73.9248L62.7874 75.3398C62.7874 75.6269 62.551 75.8567 62.2604 75.8567C61.977 75.8567 61.7371 75.6269 61.7371 75.3398V71.4593C61.7371 71.1721 61.977 70.9432 62.2604 70.9432C62.551 70.9432 62.7874 71.1721 62.7874 71.4593V72.8238L68.1164 72.8912L68.2007 71.4593C68.2007 71.1721 68.4374 70.9432 68.7277 70.9432C69.0181 70.9432 69.2513 71.1721 69.2513 71.4593V75.3398C69.2513 75.6269 69.0181 75.8567 68.7277 75.8567Z" fill="white"/>
<path d="M55.027 75.8567H49.6067C48.7386 75.8567 48.0395 75.1884 48.0395 74.3633V72.4357C48.0395 71.6115 48.7386 70.9432 49.6067 70.9432H55.027C55.3138 70.9432 55.5502 71.1721 55.5502 71.4593C55.5502 71.7467 55.3138 71.9767 55.027 71.9767H49.6101C49.3161 71.9767 49.0866 72.1956 49.0866 72.4593V74.3402C49.0866 74.6034 49.3161 74.8231 49.6101 74.8231H55.027C55.3138 74.8231 55.5502 75.0529 55.5502 75.3398C55.5502 75.6269 55.3138 75.8567 55.027 75.8567Z" fill="white"/>
<path d="M193.293 73.9248H189.655C189.368 73.9248 189.132 73.695 189.132 73.4081C189.132 73.121 189.368 72.8912 189.655 72.8912H193.293C193.603 72.8912 193.809 72.6894 193.809 72.4357C193.809 72.2057 193.596 71.9767 193.293 71.9767H188.912C188.611 71.9767 188.392 72.1956 188.392 72.4593V75.3398C188.392 75.6269 188.156 75.8567 187.869 75.8567C187.582 75.8567 187.345 75.6269 187.345 75.3398V72.4357C187.345 71.6115 188.048 70.9432 188.912 70.9432H193.293C194.147 70.9432 194.856 71.5979 194.856 72.4357C194.856 73.2735 194.164 73.9248 193.293 73.9248Z" fill="white"/>
<path d="M81.9795 73.8406H76.4273V75.3876C76.4273 75.6505 76.2179 75.8567 75.9581 75.8567C75.7011 75.8567 75.4923 75.6505 75.4923 75.3876V72.4118C75.4923 71.5979 76.1744 70.9432 77.0087 70.9432H81.3988C82.2358 70.9432 82.9185 71.5979 82.9185 72.4118V75.3876C82.9185 75.6505 82.7057 75.8567 82.4493 75.8567C82.1923 75.8567 81.9795 75.6473 81.9795 75.3876V73.8406ZM76.4307 72.9048H81.9761L81.9795 72.4357C81.9795 72.1316 81.7163 71.8787 81.3988 71.8787H77.0087C76.6945 71.8787 76.4307 72.135 76.4307 72.4384V72.9048Z" fill="white"/>
<path d="M200.002 63.098C200.002 65.3335 198.189 67.1466 195.953 67.1466H46.9454C44.7064 67.1466 42.8928 65.3335 42.8928 63.098V54.1016C42.8928 51.8624 44.7064 50.0487 46.9454 50.0487H195.953C198.189 50.0487 200.002 51.8624 200.002 54.1016V63.098Z" fill="white"/>
<path d="M49.9849 55.4454C48.911 55.4454 48.036 56.2896 48.036 57.3297V61.1595C48.036 61.4907 48.3065 61.7609 48.6409 61.7609C48.9718 61.7609 49.2383 61.4907 49.2383 61.1595V59.167H53.0985C53.4329 59.167 53.7028 58.8969 53.7028 58.5662C53.7028 58.2347 53.4329 57.9645 53.0985 57.9645H49.2383V57.3637C49.2383 56.9751 49.583 56.6473 49.9849 56.6473L55.4626 56.6511C55.7901 56.6511 56.06 56.3844 56.06 56.0494C56.06 55.7187 55.7901 55.4486 55.4557 55.4486L49.9849 55.4454Z" fill="black"/>
<path d="M193.657 56.0465V58.0727C193.657 58.1638 193.576 58.2384 193.482 58.2384H187.268C186.852 58.2384 186.525 57.9276 186.525 57.526V56.0465C186.525 55.7121 186.255 55.4422 185.923 55.4422C185.59 55.4422 185.319 55.7121 185.319 56.0465V57.5592C185.319 58.5994 186.193 59.4435 187.268 59.4435H193.468C193.573 59.4435 193.657 59.5145 193.657 59.599V59.8391C193.657 60.2375 193.326 60.5517 192.904 60.5517H185.93C185.596 60.5517 185.329 60.8219 185.329 61.1526C185.329 61.4833 185.596 61.7537 185.93 61.7537H192.914C193.992 61.7537 194.856 60.8992 194.856 59.8494V56.0465C194.856 55.7121 194.593 55.4422 194.258 55.4422C193.928 55.4422 193.657 55.7121 193.657 56.0465Z" fill="black"/>
<path d="M174.124 56.0465V59.8625C174.124 60.9063 174.995 61.7537 176.055 61.7537H183.067C183.397 61.7537 183.667 61.4833 183.667 61.1526C183.667 60.8219 183.397 60.5517 183.067 60.5517H176.055C175.667 60.5517 175.33 60.2104 175.33 59.8287V56.0465C175.33 55.7121 175.059 55.4422 174.731 55.4422C174.398 55.4422 174.124 55.7121 174.124 56.0465Z" fill="black"/>
<path d="M163.246 56.0465V59.8625C163.246 60.9063 164.111 61.7537 165.175 61.7537H172.186C172.517 61.7537 172.787 61.4833 172.787 61.1526C172.787 60.8219 172.517 60.5517 172.186 60.5517H165.175C164.789 60.5517 164.452 60.2104 164.452 59.8287V56.0465C164.452 55.7121 164.178 55.4422 163.847 55.4422C163.516 55.4422 163.246 55.7121 163.246 56.0465Z" fill="black"/>
<path d="M141.984 55.4422C140.91 55.4422 140.039 56.2896 140.039 57.3266V61.1526C140.039 61.4833 140.305 61.7537 140.636 61.7537C140.968 61.7537 141.238 61.4833 141.238 61.1526V57.36C141.238 56.972 141.582 56.6473 141.984 56.6473H147.621C148.052 56.6473 148.367 56.938 148.367 57.3366C148.367 57.6944 148.046 57.9645 147.621 57.9645H144.051C142.977 57.9645 142.102 58.8124 142.102 59.8526C142.102 60.8992 142.977 61.7537 144.051 61.7537H148.964C149.296 61.7537 149.565 61.4833 149.565 61.1526C149.565 60.8219 149.296 60.5517 148.964 60.5517H144.051C143.693 60.5517 143.305 60.2709 143.305 59.8526C143.305 59.4608 143.626 59.167 144.051 59.167H147.621C148.698 59.167 149.565 58.346 149.565 57.3366C149.565 56.2729 148.711 55.4422 147.621 55.4422H141.984Z" fill="black"/>
<path d="M125.94 55.4486C124.869 55.4486 123.998 56.2896 123.998 57.3297V59.1333C123.998 59.4645 124.264 59.7379 124.595 59.7379C124.927 59.7379 125.2 59.4645 125.2 59.1333V57.3637C125.2 56.9719 125.53 56.6511 125.94 56.6511H131.586C131.998 56.6511 132.329 56.9751 132.329 57.3736V59.8661C132.329 60.234 131.984 60.5546 131.586 60.5546H124.595C124.264 60.5546 123.998 60.8251 123.998 61.1595C123.998 61.4907 124.264 61.7609 124.595 61.7609H131.586C132.659 61.7609 133.535 60.9162 133.535 59.876V57.3637C133.535 56.3063 132.659 55.4486 131.586 55.4486H125.94Z" fill="black"/>
<path d="M112.948 56.0494V59.8661C112.948 60.9127 113.805 61.7609 114.872 61.7609H121.884C122.217 61.7609 122.488 61.4907 122.488 61.1595C122.488 60.8251 122.217 60.5546 121.884 60.5546H114.872C114.487 60.5546 114.149 60.2208 114.149 59.8359V56.0494C114.149 55.7155 113.88 55.4486 113.545 55.4486C113.214 55.4486 112.948 55.7155 112.948 56.0494Z" fill="black"/>
<path d="M103.569 55.4486C102.492 55.4486 101.62 56.2896 101.62 57.3297V61.1595C101.62 61.4907 101.891 61.7609 102.222 61.7609C102.553 61.7609 102.823 61.4907 102.823 61.1595V57.3637C102.823 56.9751 103.164 56.6511 103.569 56.6511H109.199C109.631 56.6511 109.948 56.9379 109.948 57.3433C109.948 57.701 109.625 57.9715 109.199 57.9715H105.636C104.562 57.9715 103.688 58.8153 103.688 59.8526C103.688 60.9063 104.562 61.7609 105.636 61.7609H110.55C110.881 61.7609 111.151 61.4907 111.151 61.1595C111.151 60.8251 110.881 60.5546 110.55 60.5546H105.636C105.275 60.5546 104.89 60.2784 104.89 59.8526C104.89 59.4645 105.211 59.1734 105.636 59.1734H109.199C110.276 59.1734 111.151 58.3532 111.151 57.3433C111.151 56.2797 110.296 55.4486 109.199 55.4486H103.569Z" fill="black"/>
<path d="M87.0481 56.0494V59.8457C87.0481 60.2309 86.7075 60.5546 86.3022 60.5546H85.2183C84.8028 60.5546 84.4682 60.2375 84.4682 59.8457V58.5391C84.4682 57.5019 83.604 56.6548 82.5398 56.6548C81.4593 56.6548 80.6154 57.4851 80.6154 58.5391V59.8457C80.6154 60.2375 80.274 60.5546 79.8586 60.5546H78.7678C78.3558 60.5546 78.0212 60.2375 78.0212 59.8457V56.0494C78.0212 55.7155 77.7513 55.4486 77.4201 55.4486C77.0896 55.4486 76.8156 55.7155 76.8156 56.0494V59.876C76.8156 60.9162 77.6907 61.7609 78.7678 61.7609H79.8688C80.9425 61.7609 81.8169 60.9162 81.8169 59.876V58.5391C81.8169 58.133 82.1284 57.8294 82.5398 57.8294C82.9457 57.8294 83.2626 58.1436 83.2626 58.5391V59.876C83.2626 60.9162 84.1378 61.7609 85.2115 61.7609H86.3022C87.3793 61.7609 88.251 60.9162 88.251 59.876V56.0494C88.251 55.7155 87.9838 55.4486 87.6499 55.4486C87.3188 55.4486 87.0481 55.7155 87.0481 56.0494Z" fill="black"/>
<path d="M58.7449 61.1964L58.7383 56.0802C58.7383 55.7458 58.4716 55.4757 58.1406 55.4757C57.8062 55.4757 57.5358 55.7458 57.5358 56.0802L57.5427 61.1964C57.5427 61.5308 57.8096 61.7975 58.1406 61.7975C58.4716 61.7975 58.7449 61.5308 58.7449 61.1964Z" fill="black"/>
<path d="M98.504 59.8457C98.504 60.2309 98.1626 60.5546 97.7574 60.5546H92.1107C91.7088 60.5546 91.3681 60.2309 91.3681 59.8457V57.3637C91.3681 56.9751 91.7088 56.6511 92.1107 56.6511H97.7574C98.1626 56.6511 98.504 56.9751 98.504 57.3637V59.8457ZM97.7574 55.4486H92.1107C91.0404 55.4486 90.1659 56.2896 90.1659 57.3297V59.876C90.1659 60.9162 91.0404 61.7609 92.1107 61.7609H97.7574C98.8311 61.7609 99.7062 60.9162 99.7062 59.876V57.3297C99.7062 56.2896 98.8311 55.4486 97.7574 55.4486Z" fill="black"/>
<path d="M61.9127 57.9645V57.3637C61.9127 56.9785 62.2503 56.6473 62.6556 56.6473H68.302C68.7039 56.6473 69.0453 56.9751 69.0453 57.3637L69.0419 57.9645H61.9127ZM69.0453 59.1633V61.1526C69.0453 61.4833 69.3152 61.7609 69.6464 61.7609C69.9769 61.7609 70.2475 61.4907 70.2475 61.1595V57.3297C70.2475 56.2896 69.3764 55.4454 68.302 55.4454H62.6556C61.5817 55.4454 60.7073 56.2896 60.7073 57.3297V61.1595C60.7073 61.4907 60.9771 61.7609 61.3116 61.7609C61.6391 61.7609 61.9127 61.4907 61.9127 61.1595L61.9095 59.1633H69.0453Z" fill="black"/>
<path d="M152.842 57.9645V57.3637C152.842 56.9785 153.172 56.6473 153.577 56.6473H159.221C159.626 56.6473 159.967 56.9751 159.967 57.3637L159.963 57.9645H152.842ZM159.967 59.1633V61.1526C159.967 61.4833 160.241 61.7609 160.568 61.7609C160.899 61.7609 161.17 61.4907 161.17 61.1595V57.3297C161.17 56.2896 160.294 55.4454 159.221 55.4454H153.577C152.507 55.4454 151.632 56.2896 151.632 57.3297V61.1595C151.632 61.4907 151.899 61.7609 152.234 61.7609C152.564 61.7609 152.835 61.4907 152.835 61.1595V59.1633H159.967Z" fill="black"/>
<path d="M0 62.9758C0 55.8327 5.80014 50.0346 12.9472 50.0346C15.1533 50.0346 17.2307 50.5874 19.0534 51.5646C20.8679 50.5914 22.9373 50.0413 25.1386 50.0413C32.2859 50.0413 38.0691 55.8284 38.0691 62.9609C38.0691 70.0972 32.2859 75.8784 25.1386 75.8784C22.9543 75.8784 20.8979 75.3366 19.0879 74.3702C17.2602 75.3602 15.1657 75.9233 12.9472 75.9233C5.80014 75.9233 0 70.1317 0 62.9758ZM19.8271 52.0149C20.7874 52.6266 21.6711 53.3534 22.4361 54.1842C23.3456 53.8886 24.2928 53.7403 25.2491 53.7403C27.7305 53.7403 30.042 54.7067 31.7884 56.4444C33.5352 58.1887 34.4954 60.5068 34.4954 62.9758C34.4954 64.4075 34.1726 65.7781 33.5647 67.0274L34.3892 69.9551H31.3082C29.6299 71.4149 27.5052 72.2113 25.2491 72.2113C24.2846 72.2113 23.3411 72.067 22.4361 71.778C21.6711 72.6044 20.7874 73.3354 19.8271 73.9426C20.3157 74.1763 20.8214 74.3785 21.3484 74.5533L21.6711 73.6175L23.0949 73.954L22.9631 74.9583C23.4473 75.0415 23.9486 75.0991 24.4586 75.1304L24.5351 74.1532L25.9968 74.1235L26.1243 75.0991C26.6258 75.0585 27.127 74.9883 27.6115 74.8863L27.4372 73.937L28.8397 73.5224L29.2134 74.4295C29.6852 74.2674 30.1442 74.0703 30.5947 73.8432L30.1865 72.9741L31.4357 72.2195L32.0222 72.9972C32.4304 72.7069 32.8299 72.3982 33.1992 72.067L32.5874 71.3421L33.6029 70.2929L34.3591 70.89C34.6864 70.5078 34.9884 70.1038 35.2686 69.6897L34.4954 69.1478L35.2006 67.8686L36.0843 68.2447C36.2968 67.8009 36.4884 67.3355 36.6453 66.8574L35.7659 66.5389L36.1183 65.1173L37.0615 65.2575C37.1553 64.7943 37.2148 64.3206 37.2488 63.8444L36.3226 63.7512L36.3056 62.2915L37.2488 62.1832C37.2188 61.6756 37.1553 61.1781 37.0615 60.6981L36.1441 60.8553L35.7528 59.4404L36.6453 59.0982C36.4884 58.6183 36.2929 58.1508 36.0843 57.7045L35.2176 58.0916L34.4866 56.8311L35.2604 56.2641C34.9796 55.8497 34.6782 55.4441 34.3511 55.0574L33.6287 55.6609L32.5874 54.6387L33.1949 53.8825C32.8167 53.5531 32.4217 53.2429 32.0052 52.9518L31.4532 53.7189L30.1907 53.0093L30.5859 52.1062C30.1355 51.8789 29.6765 51.6898 29.201 51.5176L28.8607 52.4226L27.446 52.0489L27.603 51.0716C27.11 50.9675 26.6173 50.8931 26.1073 50.8549L26.0141 51.8175L24.5521 51.8279L24.4416 50.8294C23.9403 50.8591 23.4391 50.9163 22.9501 51.0015L23.1076 51.9787L21.6969 52.3549L21.3396 51.4093C20.8214 51.5771 20.3157 51.7835 19.8271 52.0149ZM22.7506 54.5304C23.3963 55.2696 23.9486 56.0898 24.4121 56.9674L24.6966 56.0367H30.4755L33.3819 66.3835C33.8239 65.334 34.0704 64.1849 34.0704 62.9758C34.0704 60.6261 33.1527 58.4121 31.4827 56.7486C29.8215 55.0847 27.6115 54.1693 25.2491 54.1693C24.3993 54.1693 23.5578 54.2881 22.7506 54.5304ZM23.8468 69.9551C23.5153 70.4712 23.1496 70.9663 22.7506 71.4253C23.5578 71.6633 24.3951 71.7884 25.2491 71.7884C27.2715 71.7884 29.1457 71.1041 30.6372 69.9551H29.3962C29.3962 69.9551 29.2432 69.2772 29.0307 68.351C29.0055 68.2578 29.0137 68.2359 29.0225 68.2128L28.878 68.1898H25.9206C25.7931 68.1898 25.7421 68.1517 25.7421 68.1517C25.7931 68.2359 25.8013 68.2578 25.7761 68.351L25.3766 69.9551H23.8468ZM0.781994 63.1798C0.829009 66.2581 2.01847 69.0567 3.94344 71.166C4.49168 70.7179 5.06516 70.312 5.66866 69.9551H3.08946V63.1798H0.781994ZM4.24067 71.4763C6.38664 73.6772 9.36556 75.0664 12.6631 75.1387C10.8146 73.4135 9.35686 71.3639 8.40507 69.1348C8.25207 69.1922 8.09935 69.2437 7.95063 69.3069V69.9551H6.53114C5.71966 70.3822 4.95466 70.8922 4.24067 71.4763ZM13.1773 75.1352C16.4957 75.0712 19.4871 73.6924 21.6456 71.4763C20.9019 70.8643 20.0904 70.333 19.2491 69.8937L17.1459 69.9551C16.1812 71.8952 14.8385 73.6772 13.1773 75.1352ZM21.9389 71.166C22.2874 70.7819 22.6146 70.3822 22.9121 69.9551H20.3879L22.4871 63.1798H19.2491V69.4198C20.2009 69.8937 21.1016 70.4842 21.9389 71.166ZM24.0761 58.0615C23.5321 56.8527 22.8141 55.7501 21.9349 54.7877C21.0594 55.5054 20.1074 56.1156 19.1004 56.6041C19.3511 56.9823 19.4912 57.4349 19.4912 57.9213C19.4912 58.7306 19.1004 59.4513 18.4927 59.8884C18.5609 60.2178 18.6202 60.539 18.6627 60.8744H19.2491V62.7612H22.6189L24.0761 58.0615ZM21.6416 54.4751C19.4786 52.2569 16.4872 50.8761 13.1773 50.8124C14.6982 52.1506 15.952 53.7529 16.8909 55.5054L17.0649 55.5012C17.7619 55.5012 18.3907 55.7944 18.8284 56.258C19.8271 55.7817 20.7704 55.1849 21.6416 54.4751ZM12.7478 50.8124C9.41636 50.8674 6.40789 52.2552 4.24519 54.4751C4.90818 55.0191 5.62616 55.5012 6.37415 55.9071H8.82157C9.78186 53.9991 11.1078 52.2529 12.7478 50.8124ZM3.95167 54.7811C2.02723 56.8931 0.832993 59.6871 0.781994 62.7612H3.08946V55.9071H5.52443C4.98043 55.5737 4.45343 55.1997 3.95167 54.7811ZM27.416 61.7051C27.3483 61.9622 26.9995 63.3646 26.6173 64.9263C26.5921 65.0068 26.5751 65.0346 26.5705 65.0472L26.7108 65.0812H28.2065C28.2575 65.0729 28.2997 65.1173 28.2997 65.1173C28.2575 65.0346 28.232 65.0068 28.215 64.9263L27.4712 61.7117C27.446 61.6246 27.446 61.4522 27.446 61.4522C27.446 61.4522 27.4372 61.6288 27.416 61.7051ZM12.7478 68.3637C11.4011 68.385 10.0709 68.5972 8.80858 69.0009C9.70536 71.0792 11.0481 72.9871 12.7478 74.5633V68.3637ZM7.95063 67.9539V68.8461L8.24385 68.7398C8.13335 68.4809 8.03957 68.2128 7.95063 67.9539ZM11.7873 63.1798V64.9877H7.99708L7.95063 66.4239C8.12457 67.1634 8.35808 67.8898 8.64307 68.6078C9.96036 68.1788 11.3458 67.956 12.7478 67.9408V63.1798H11.7873ZM12.259 57.9956V59.6531H7.99708L7.95063 61.4671L11.7873 61.5032V62.7612H12.7478V58.0105C12.5863 58.0105 12.4205 58.0023 12.259 57.9956ZM9.30158 55.9071H12.259V57.5728C12.4205 57.5794 12.5863 57.5837 12.7478 57.5837V51.3923C11.3288 52.6968 10.1683 54.235 9.30158 55.9071ZM14.8297 68.0644V63.1798H13.1773V67.9408C13.7338 67.9539 14.286 67.9879 14.8297 68.0644ZM16.6657 69.9551H14.8297V68.4936C14.286 68.4229 13.7338 68.3719 13.1773 68.3719V74.5633C14.6129 73.2334 15.7987 71.659 16.6657 69.9551ZM14.6852 57.4774C14.864 56.5549 15.5479 55.8202 16.4444 55.5777C15.6035 54.0331 14.4988 52.6141 13.1773 51.3923V57.5837C13.6828 57.5794 14.1885 57.5409 14.6852 57.4774ZM14.643 57.9213C14.1545 57.9723 13.6697 57.9999 13.1773 58.0105V62.7612H14.8297V60.8744H18.2337C18.1954 60.6194 18.1527 60.3666 18.1017 60.1161C17.7917 60.2649 17.4387 60.3453 17.0649 60.3453C15.731 60.3453 14.643 59.2576 14.643 57.9213Z" fill="white"/>
</g>
<defs>
<clipPath id="clip0_62_11798">
<rect width="200" height="75.8466" fill="white" transform="translate(0 0.0767212)"/>
</clipPath>
</defs>
</svg>
